M48
M72,TZ
T10C0.035000
T11C0.040000
T12C0.038000
T13C0.015748
T14C0.042000
T15C0.031497
%
T10
X2.477780Y1.917279
X2.877780Y1.917279
X1.477780Y0.417280
X1.577780Y0.417280
X0.477778Y0.217280
X0.477778Y0.317280
X0.277777Y1.117280
X0.277777Y0.861370
X0.100607Y1.117280
X0.100607Y0.861370
X0.277777Y0.517280
X0.277777Y0.261370
X0.100607Y0.517280
X0.100607Y0.261370
X0.277777Y1.817279
X0.277777Y1.561369
X0.100607Y1.817279
X0.100607Y1.561369
X2.477780Y0.117280
X2.377780Y0.117280
X2.277780Y0.117280
X2.177780Y0.117280
X2.077780Y0.117280
X1.977780Y0.117280
X1.777780Y0.117280
X1.677780Y0.117280
X1.577780Y0.117280
X1.477780Y0.117280
X1.377780Y0.117280
X1.277780Y0.117280
X2.477780Y2.017279
X2.377780Y2.017279
X2.277780Y2.017279
X2.177780Y2.017279
X2.077780Y2.017279
X1.977780Y2.017279
X1.877780Y2.017279
X1.777780Y2.017279
X1.607780Y2.017279
X1.507780Y2.017279
X1.407780Y2.017279
X1.307780Y2.017279
X1.207780Y2.017279
X1.107780Y2.017279
X1.007780Y2.017279
X0.907778Y2.017279
X2.277780Y1.717279
X2.177780Y1.717279
X2.077780Y1.717279
X1.977780Y1.717279
X1.877780Y1.717279
X1.777780Y1.717279
X1.677780Y1.717279
X1.577780Y1.717279
X1.477780Y1.717279
X1.377780Y1.717279
X1.277780Y1.717279
X1.177780Y1.717279
X1.077780Y1.717279
X0.977778Y1.717279
X0.877778Y1.717279
X0.777778Y1.717279
T11
X2.939990Y0.217280
X3.077780Y0.217280
X3.477780Y0.279490
X3.477780Y0.417280
X3.477780Y1.241683
X3.477780Y1.379478
X3.477780Y1.517274
X3.477780Y1.655069
X3.477780Y1.792864
X3.477780Y1.930659
T12
X2.777780Y0.917280
X2.977780Y0.917280
X3.177780Y0.917280
T13
X1.277530Y0.317650
X1.277530Y0.718140
X1.477780Y0.715690
X1.778300Y0.717340
X1.877320Y0.516990
X3.077780Y0.515690
X2.779370Y0.516990
X1.377300Y1.916794
X0.577040Y1.217283
X0.577040Y1.015790
X0.577040Y1.617283
X2.379110Y1.915950
X2.478670Y1.816394
X1.678670Y1.816394
X1.678670Y1.915950
T14
X0.777780Y0.317280
X0.877780Y0.317280
X0.977780Y0.317280
T15
X2.977770Y2.017279
X2.879340Y2.017279
T00
M30
