G04 MADE WITH FRITZING*
G04 WWW.FRITZING.ORG*
G04 DOUBLE SIDED*
G04 HOLES PLATED*
G04 CONTOUR ON CENTER OF CONTOUR VECTOR*
%ASAXBY*%
%FSLAX23Y23*%
%MOIN*%
%OFA0B0*%
%SFA1.0B1.0*%
%ADD10C,0.075000*%
%ADD11C,0.080000*%
%ADD12C,0.078000*%
%ADD13C,0.082000*%
%ADD14C,0.039370*%
%ADD15C,0.062992*%
%ADD16R,0.080000X0.080000*%
%ADD17R,0.078000X0.078000*%
%ADD18R,0.082000X0.082000*%
%ADD19R,0.075000X0.075000*%
%ADD20R,0.311111X0.355556*%
%ADD21R,0.062992X0.062992*%
%ADD22C,0.024000*%
%ADD23C,0.048000*%
%ADD24R,0.001000X0.001000*%
%LNCOPPER0*%
G90*
G70*
G54D10*
X1239Y1884D03*
X2621Y2014D03*
X124Y2027D03*
X101Y1561D03*
X101Y1817D03*
X278Y1561D03*
X278Y1817D03*
X101Y261D03*
X101Y517D03*
X278Y261D03*
X278Y517D03*
X101Y861D03*
X101Y1117D03*
X278Y861D03*
X278Y1117D03*
G54D11*
X3478Y1931D03*
X3478Y1793D03*
X3478Y1655D03*
X3478Y1517D03*
X3478Y1379D03*
X3478Y1242D03*
X3478Y417D03*
X3478Y279D03*
X3078Y217D03*
X2940Y217D03*
G54D12*
X3178Y917D03*
X2978Y917D03*
X2778Y917D03*
G54D13*
X978Y317D03*
X878Y317D03*
X778Y317D03*
G54D10*
X478Y317D03*
X478Y217D03*
X1578Y417D03*
X1478Y417D03*
G54D14*
X2779Y517D03*
X1877Y517D03*
X1278Y718D03*
X1278Y318D03*
G54D15*
X2879Y2017D03*
X2978Y2017D03*
G54D10*
X2778Y1917D03*
X2378Y1917D03*
G54D14*
X1078Y1817D03*
X578Y1617D03*
X1078Y1617D03*
G54D10*
X908Y2017D03*
X1008Y2017D03*
X1108Y2017D03*
X1208Y2017D03*
X1308Y2017D03*
X1408Y2017D03*
X1508Y2017D03*
X1608Y2017D03*
X1778Y2017D03*
X1878Y2017D03*
X1978Y2017D03*
X2078Y2017D03*
X2178Y2017D03*
X2278Y2017D03*
X2378Y2017D03*
X2478Y2017D03*
X1278Y117D03*
X1378Y117D03*
X1478Y117D03*
X1578Y117D03*
X1678Y117D03*
X1778Y117D03*
X1978Y117D03*
X2078Y117D03*
X2178Y117D03*
X2278Y117D03*
X2378Y117D03*
X2478Y117D03*
X778Y1717D03*
X878Y1717D03*
X978Y1717D03*
X1078Y1717D03*
X1178Y1717D03*
X1278Y1717D03*
X1378Y1717D03*
X1478Y1717D03*
X1578Y1717D03*
X1678Y1717D03*
X1778Y1717D03*
X1878Y1717D03*
X1978Y1717D03*
X2078Y1717D03*
X2178Y1717D03*
X2278Y1717D03*
G54D16*
X3478Y1931D03*
X3478Y417D03*
X3078Y217D03*
G54D17*
X3178Y917D03*
G54D18*
X978Y317D03*
G54D19*
X478Y317D03*
X1578Y417D03*
G54D20*
X878Y617D03*
X878Y617D03*
G54D21*
X2879Y2017D03*
G54D19*
X2778Y1917D03*
X777Y1718D03*
G54D22*
X2978Y1119D02*
X2978Y943D01*
D02*
X977Y1119D02*
X2978Y1119D01*
D02*
X978Y1692D02*
X977Y1119D01*
G54D23*
D02*
X3478Y918D02*
X3215Y917D01*
D02*
X3478Y454D02*
X3478Y918D01*
D02*
X2749Y517D02*
X1907Y517D01*
D02*
X875Y1019D02*
X878Y1681D01*
D02*
X1379Y1019D02*
X875Y1019D01*
D02*
X1378Y317D02*
X1379Y1019D01*
D02*
X1462Y149D02*
X1378Y317D01*
D02*
X1779Y818D02*
X1378Y818D01*
D02*
X1378Y318D02*
X1462Y150D01*
D02*
X3178Y719D02*
X1877Y719D01*
D02*
X1877Y719D02*
X1779Y818D01*
D02*
X1378Y818D02*
X1378Y318D01*
D02*
X3178Y881D02*
X3178Y719D01*
D02*
X878Y355D02*
X878Y445D01*
D02*
X1278Y688D02*
X1278Y348D01*
G54D22*
D02*
X278Y418D02*
X101Y418D01*
D02*
X101Y418D02*
X101Y286D01*
D02*
X377Y317D02*
X278Y418D01*
D02*
X453Y317D02*
X377Y317D01*
D02*
X377Y1617D02*
X559Y1617D01*
D02*
X378Y1817D02*
X377Y1617D01*
D02*
X303Y1817D02*
X378Y1817D01*
D02*
X1194Y1996D02*
X1088Y1833D01*
D02*
X778Y1919D02*
X778Y1742D01*
D02*
X1008Y1919D02*
X778Y1919D01*
D02*
X1008Y1992D02*
X1008Y1919D01*
D02*
X778Y1742D02*
X778Y1919D01*
D02*
X778Y1919D02*
X101Y1919D01*
D02*
X101Y1919D02*
X101Y1842D01*
D02*
X1408Y1992D02*
X1408Y1917D01*
D02*
X1097Y1617D02*
X2478Y1617D01*
D02*
X2177Y1917D02*
X1408Y1917D01*
D02*
X2478Y1617D02*
X2478Y1717D01*
D02*
X2478Y1717D02*
X2177Y1917D01*
D02*
X2295Y2000D02*
X2360Y1935D01*
G36*
X1658Y2084D02*
X1658Y2064D01*
X1660Y2064D01*
X1660Y2062D01*
X1662Y2062D01*
X1662Y2060D01*
X1664Y2060D01*
X1664Y2058D01*
X1666Y2058D01*
X1666Y2054D01*
X1668Y2054D01*
X1668Y2052D01*
X1670Y2052D01*
X1670Y2048D01*
X1672Y2048D01*
X1672Y2044D01*
X1674Y2044D01*
X1674Y2038D01*
X1676Y2038D01*
X1676Y2028D01*
X1678Y2028D01*
X1678Y2006D01*
X1676Y2006D01*
X1676Y1996D01*
X1674Y1996D01*
X1674Y1990D01*
X1672Y1990D01*
X1672Y1986D01*
X1670Y1986D01*
X1670Y1982D01*
X1668Y1982D01*
X1668Y1980D01*
X1666Y1980D01*
X1666Y1960D01*
X1718Y1960D01*
X1718Y1982D01*
X1716Y1982D01*
X1716Y1986D01*
X1714Y1986D01*
X1714Y1990D01*
X1712Y1990D01*
X1712Y1994D01*
X1710Y1994D01*
X1710Y2002D01*
X1708Y2002D01*
X1708Y2032D01*
X1710Y2032D01*
X1710Y2040D01*
X1712Y2040D01*
X1712Y2044D01*
X1714Y2044D01*
X1714Y2048D01*
X1716Y2048D01*
X1716Y2052D01*
X1718Y2052D01*
X1718Y2056D01*
X1720Y2056D01*
X1720Y2058D01*
X1722Y2058D01*
X1722Y2060D01*
X1724Y2060D01*
X1724Y2062D01*
X1726Y2062D01*
X1726Y2064D01*
X1728Y2064D01*
X1728Y2084D01*
X1658Y2084D01*
G37*
D02*
G36*
X1248Y1960D02*
X1248Y1958D01*
X1268Y1958D01*
X1268Y1960D01*
X1248Y1960D01*
G37*
D02*
G36*
X1244Y1958D02*
X1244Y1956D01*
X1240Y1956D01*
X1240Y1954D01*
X1238Y1954D01*
X1238Y1952D01*
X1232Y1952D01*
X1232Y1950D01*
X1226Y1950D01*
X1226Y1948D01*
X1290Y1948D01*
X1290Y1950D01*
X1284Y1950D01*
X1284Y1952D01*
X1278Y1952D01*
X1278Y1954D01*
X1274Y1954D01*
X1274Y1956D01*
X1272Y1956D01*
X1272Y1958D01*
X1244Y1958D01*
G37*
D02*
G36*
X1344Y1958D02*
X1344Y1956D01*
X1340Y1956D01*
X1340Y1954D01*
X1338Y1954D01*
X1338Y1952D01*
X1332Y1952D01*
X1332Y1950D01*
X1326Y1950D01*
X1326Y1948D01*
X1364Y1948D01*
X1364Y1958D01*
X1344Y1958D01*
G37*
D02*
G36*
X1218Y1948D02*
X1218Y1946D01*
X1364Y1946D01*
X1364Y1948D01*
X1218Y1948D01*
G37*
D02*
G36*
X1218Y1948D02*
X1218Y1946D01*
X1364Y1946D01*
X1364Y1948D01*
X1218Y1948D01*
G37*
D02*
G36*
X1216Y1946D02*
X1216Y1942D01*
X1214Y1942D01*
X1214Y1940D01*
X1212Y1940D01*
X1212Y1936D01*
X1210Y1936D01*
X1210Y1934D01*
X1208Y1934D01*
X1208Y1930D01*
X1206Y1930D01*
X1206Y1926D01*
X1204Y1926D01*
X1204Y1924D01*
X1202Y1924D01*
X1202Y1920D01*
X1200Y1920D01*
X1200Y1918D01*
X1198Y1918D01*
X1198Y1914D01*
X1196Y1914D01*
X1196Y1912D01*
X1194Y1912D01*
X1194Y1908D01*
X1192Y1908D01*
X1192Y1906D01*
X1190Y1906D01*
X1190Y1902D01*
X1188Y1902D01*
X1188Y1900D01*
X1186Y1900D01*
X1186Y1896D01*
X1184Y1896D01*
X1184Y1894D01*
X1182Y1894D01*
X1182Y1890D01*
X1180Y1890D01*
X1180Y1886D01*
X1178Y1886D01*
X1178Y1884D01*
X1176Y1884D01*
X1176Y1880D01*
X1174Y1880D01*
X1174Y1878D01*
X1172Y1878D01*
X1172Y1874D01*
X1170Y1874D01*
X1170Y1872D01*
X1168Y1872D01*
X1168Y1868D01*
X1166Y1868D01*
X1166Y1866D01*
X1164Y1866D01*
X1164Y1862D01*
X1162Y1862D01*
X1162Y1860D01*
X1160Y1860D01*
X1160Y1856D01*
X1158Y1856D01*
X1158Y1854D01*
X1156Y1854D01*
X1156Y1850D01*
X1154Y1850D01*
X1154Y1846D01*
X1152Y1846D01*
X1152Y1844D01*
X1150Y1844D01*
X1150Y1840D01*
X1148Y1840D01*
X1148Y1838D01*
X1146Y1838D01*
X1146Y1834D01*
X1144Y1834D01*
X1144Y1832D01*
X1142Y1832D01*
X1142Y1828D01*
X1140Y1828D01*
X1140Y1826D01*
X1138Y1826D01*
X1138Y1822D01*
X1136Y1822D01*
X1136Y1820D01*
X1134Y1820D01*
X1134Y1816D01*
X1132Y1816D01*
X1132Y1814D01*
X1130Y1814D01*
X1130Y1806D01*
X1128Y1806D01*
X1128Y1798D01*
X1126Y1798D01*
X1126Y1794D01*
X1124Y1794D01*
X1124Y1790D01*
X1122Y1790D01*
X1122Y1786D01*
X2196Y1786D01*
X2196Y1784D01*
X2202Y1784D01*
X2202Y1782D01*
X2206Y1782D01*
X2206Y1780D01*
X2210Y1780D01*
X2210Y1778D01*
X2214Y1778D01*
X2214Y1776D01*
X2216Y1776D01*
X2216Y1774D01*
X2238Y1774D01*
X2238Y1776D01*
X2242Y1776D01*
X2242Y1778D01*
X2244Y1778D01*
X2244Y1780D01*
X2248Y1780D01*
X2248Y1782D01*
X2254Y1782D01*
X2254Y1784D01*
X2260Y1784D01*
X2260Y1806D01*
X2258Y1806D01*
X2258Y1808D01*
X2254Y1808D01*
X2254Y1810D01*
X2252Y1810D01*
X2252Y1812D01*
X2248Y1812D01*
X2248Y1814D01*
X2246Y1814D01*
X2246Y1816D01*
X2242Y1816D01*
X2242Y1818D01*
X2240Y1818D01*
X2240Y1820D01*
X2236Y1820D01*
X2236Y1822D01*
X2234Y1822D01*
X2234Y1824D01*
X2230Y1824D01*
X2230Y1826D01*
X2228Y1826D01*
X2228Y1828D01*
X2224Y1828D01*
X2224Y1830D01*
X2222Y1830D01*
X2222Y1832D01*
X2218Y1832D01*
X2218Y1834D01*
X2216Y1834D01*
X2216Y1836D01*
X2212Y1836D01*
X2212Y1838D01*
X2210Y1838D01*
X2210Y1840D01*
X2206Y1840D01*
X2206Y1842D01*
X2204Y1842D01*
X2204Y1844D01*
X2200Y1844D01*
X2200Y1846D01*
X2198Y1846D01*
X2198Y1848D01*
X2194Y1848D01*
X2194Y1850D01*
X2192Y1850D01*
X2192Y1852D01*
X2188Y1852D01*
X2188Y1854D01*
X2186Y1854D01*
X2186Y1856D01*
X2182Y1856D01*
X2182Y1858D01*
X2180Y1858D01*
X2180Y1860D01*
X2176Y1860D01*
X2176Y1862D01*
X2174Y1862D01*
X2174Y1864D01*
X2170Y1864D01*
X2170Y1866D01*
X2168Y1866D01*
X2168Y1868D01*
X2164Y1868D01*
X2164Y1870D01*
X2162Y1870D01*
X2162Y1872D01*
X1396Y1872D01*
X1396Y1874D01*
X1388Y1874D01*
X1388Y1876D01*
X1384Y1876D01*
X1384Y1878D01*
X1380Y1878D01*
X1380Y1880D01*
X1378Y1880D01*
X1378Y1882D01*
X1376Y1882D01*
X1376Y1884D01*
X1374Y1884D01*
X1374Y1886D01*
X1372Y1886D01*
X1372Y1888D01*
X1370Y1888D01*
X1370Y1890D01*
X1368Y1890D01*
X1368Y1894D01*
X1366Y1894D01*
X1366Y1900D01*
X1364Y1900D01*
X1364Y1946D01*
X1216Y1946D01*
G37*
D02*
G36*
X1122Y1786D02*
X1122Y1776D01*
X1142Y1776D01*
X1142Y1778D01*
X1144Y1778D01*
X1144Y1780D01*
X1148Y1780D01*
X1148Y1782D01*
X1154Y1782D01*
X1154Y1784D01*
X1160Y1784D01*
X1160Y1786D01*
X1122Y1786D01*
G37*
D02*
G36*
X1196Y1786D02*
X1196Y1784D01*
X1202Y1784D01*
X1202Y1782D01*
X1206Y1782D01*
X1206Y1780D01*
X1210Y1780D01*
X1210Y1778D01*
X1214Y1778D01*
X1214Y1776D01*
X1216Y1776D01*
X1216Y1774D01*
X1238Y1774D01*
X1238Y1776D01*
X1242Y1776D01*
X1242Y1778D01*
X1244Y1778D01*
X1244Y1780D01*
X1248Y1780D01*
X1248Y1782D01*
X1254Y1782D01*
X1254Y1784D01*
X1260Y1784D01*
X1260Y1786D01*
X1196Y1786D01*
G37*
D02*
G36*
X1296Y1786D02*
X1296Y1784D01*
X1302Y1784D01*
X1302Y1782D01*
X1306Y1782D01*
X1306Y1780D01*
X1310Y1780D01*
X1310Y1778D01*
X1314Y1778D01*
X1314Y1776D01*
X1316Y1776D01*
X1316Y1774D01*
X1338Y1774D01*
X1338Y1776D01*
X1342Y1776D01*
X1342Y1778D01*
X1344Y1778D01*
X1344Y1780D01*
X1348Y1780D01*
X1348Y1782D01*
X1354Y1782D01*
X1354Y1784D01*
X1360Y1784D01*
X1360Y1786D01*
X1296Y1786D01*
G37*
D02*
G36*
X1396Y1786D02*
X1396Y1784D01*
X1402Y1784D01*
X1402Y1782D01*
X1406Y1782D01*
X1406Y1780D01*
X1410Y1780D01*
X1410Y1778D01*
X1414Y1778D01*
X1414Y1776D01*
X1416Y1776D01*
X1416Y1774D01*
X1438Y1774D01*
X1438Y1776D01*
X1442Y1776D01*
X1442Y1778D01*
X1444Y1778D01*
X1444Y1780D01*
X1448Y1780D01*
X1448Y1782D01*
X1454Y1782D01*
X1454Y1784D01*
X1460Y1784D01*
X1460Y1786D01*
X1396Y1786D01*
G37*
D02*
G36*
X1496Y1786D02*
X1496Y1784D01*
X1502Y1784D01*
X1502Y1782D01*
X1506Y1782D01*
X1506Y1780D01*
X1510Y1780D01*
X1510Y1778D01*
X1514Y1778D01*
X1514Y1776D01*
X1516Y1776D01*
X1516Y1774D01*
X1538Y1774D01*
X1538Y1776D01*
X1542Y1776D01*
X1542Y1778D01*
X1544Y1778D01*
X1544Y1780D01*
X1548Y1780D01*
X1548Y1782D01*
X1554Y1782D01*
X1554Y1784D01*
X1560Y1784D01*
X1560Y1786D01*
X1496Y1786D01*
G37*
D02*
G36*
X1596Y1786D02*
X1596Y1784D01*
X1602Y1784D01*
X1602Y1782D01*
X1606Y1782D01*
X1606Y1780D01*
X1610Y1780D01*
X1610Y1778D01*
X1614Y1778D01*
X1614Y1776D01*
X1616Y1776D01*
X1616Y1774D01*
X1638Y1774D01*
X1638Y1776D01*
X1642Y1776D01*
X1642Y1778D01*
X1644Y1778D01*
X1644Y1780D01*
X1648Y1780D01*
X1648Y1782D01*
X1654Y1782D01*
X1654Y1784D01*
X1660Y1784D01*
X1660Y1786D01*
X1596Y1786D01*
G37*
D02*
G36*
X1696Y1786D02*
X1696Y1784D01*
X1702Y1784D01*
X1702Y1782D01*
X1706Y1782D01*
X1706Y1780D01*
X1710Y1780D01*
X1710Y1778D01*
X1714Y1778D01*
X1714Y1776D01*
X1716Y1776D01*
X1716Y1774D01*
X1738Y1774D01*
X1738Y1776D01*
X1742Y1776D01*
X1742Y1778D01*
X1744Y1778D01*
X1744Y1780D01*
X1748Y1780D01*
X1748Y1782D01*
X1754Y1782D01*
X1754Y1784D01*
X1760Y1784D01*
X1760Y1786D01*
X1696Y1786D01*
G37*
D02*
G36*
X1796Y1786D02*
X1796Y1784D01*
X1802Y1784D01*
X1802Y1782D01*
X1806Y1782D01*
X1806Y1780D01*
X1810Y1780D01*
X1810Y1778D01*
X1814Y1778D01*
X1814Y1776D01*
X1816Y1776D01*
X1816Y1774D01*
X1838Y1774D01*
X1838Y1776D01*
X1842Y1776D01*
X1842Y1778D01*
X1844Y1778D01*
X1844Y1780D01*
X1848Y1780D01*
X1848Y1782D01*
X1854Y1782D01*
X1854Y1784D01*
X1860Y1784D01*
X1860Y1786D01*
X1796Y1786D01*
G37*
D02*
G36*
X1896Y1786D02*
X1896Y1784D01*
X1902Y1784D01*
X1902Y1782D01*
X1906Y1782D01*
X1906Y1780D01*
X1910Y1780D01*
X1910Y1778D01*
X1914Y1778D01*
X1914Y1776D01*
X1916Y1776D01*
X1916Y1774D01*
X1938Y1774D01*
X1938Y1776D01*
X1942Y1776D01*
X1942Y1778D01*
X1944Y1778D01*
X1944Y1780D01*
X1948Y1780D01*
X1948Y1782D01*
X1954Y1782D01*
X1954Y1784D01*
X1960Y1784D01*
X1960Y1786D01*
X1896Y1786D01*
G37*
D02*
G36*
X1996Y1786D02*
X1996Y1784D01*
X2002Y1784D01*
X2002Y1782D01*
X2006Y1782D01*
X2006Y1780D01*
X2010Y1780D01*
X2010Y1778D01*
X2014Y1778D01*
X2014Y1776D01*
X2016Y1776D01*
X2016Y1774D01*
X2038Y1774D01*
X2038Y1776D01*
X2042Y1776D01*
X2042Y1778D01*
X2044Y1778D01*
X2044Y1780D01*
X2048Y1780D01*
X2048Y1782D01*
X2054Y1782D01*
X2054Y1784D01*
X2060Y1784D01*
X2060Y1786D01*
X1996Y1786D01*
G37*
D02*
G36*
X2096Y1786D02*
X2096Y1784D01*
X2102Y1784D01*
X2102Y1782D01*
X2106Y1782D01*
X2106Y1780D01*
X2110Y1780D01*
X2110Y1778D01*
X2114Y1778D01*
X2114Y1776D01*
X2116Y1776D01*
X2116Y1774D01*
X2138Y1774D01*
X2138Y1776D01*
X2142Y1776D01*
X2142Y1778D01*
X2144Y1778D01*
X2144Y1780D01*
X2148Y1780D01*
X2148Y1782D01*
X2154Y1782D01*
X2154Y1784D01*
X2160Y1784D01*
X2160Y1786D01*
X2096Y1786D01*
G37*
D02*
G36*
X2222Y1958D02*
X2222Y1942D01*
X2226Y1942D01*
X2226Y1940D01*
X2228Y1940D01*
X2228Y1938D01*
X2232Y1938D01*
X2232Y1936D01*
X2234Y1936D01*
X2234Y1934D01*
X2238Y1934D01*
X2238Y1932D01*
X2240Y1932D01*
X2240Y1930D01*
X2244Y1930D01*
X2244Y1928D01*
X2246Y1928D01*
X2246Y1926D01*
X2250Y1926D01*
X2250Y1924D01*
X2252Y1924D01*
X2252Y1922D01*
X2256Y1922D01*
X2256Y1920D01*
X2258Y1920D01*
X2258Y1918D01*
X2262Y1918D01*
X2262Y1916D01*
X2264Y1916D01*
X2264Y1914D01*
X2268Y1914D01*
X2268Y1912D01*
X2270Y1912D01*
X2270Y1910D01*
X2274Y1910D01*
X2274Y1908D01*
X2276Y1908D01*
X2276Y1906D01*
X2280Y1906D01*
X2280Y1904D01*
X2282Y1904D01*
X2282Y1902D01*
X2286Y1902D01*
X2286Y1900D01*
X2288Y1900D01*
X2288Y1898D01*
X2308Y1898D01*
X2308Y1922D01*
X2306Y1922D01*
X2306Y1924D01*
X2304Y1924D01*
X2304Y1926D01*
X2302Y1926D01*
X2302Y1928D01*
X2300Y1928D01*
X2300Y1930D01*
X2298Y1930D01*
X2298Y1932D01*
X2296Y1932D01*
X2296Y1934D01*
X2294Y1934D01*
X2294Y1936D01*
X2292Y1936D01*
X2292Y1938D01*
X2290Y1938D01*
X2290Y1940D01*
X2288Y1940D01*
X2288Y1942D01*
X2286Y1942D01*
X2286Y1944D01*
X2284Y1944D01*
X2284Y1946D01*
X2282Y1946D01*
X2282Y1948D01*
X2260Y1948D01*
X2260Y1950D01*
X2254Y1950D01*
X2254Y1952D01*
X2248Y1952D01*
X2248Y1954D01*
X2244Y1954D01*
X2244Y1956D01*
X2242Y1956D01*
X2242Y1958D01*
X2222Y1958D01*
G37*
D02*
G36*
X2346Y1736D02*
X2346Y1728D01*
X2348Y1728D01*
X2348Y1706D01*
X2346Y1706D01*
X2346Y1696D01*
X2344Y1696D01*
X2344Y1690D01*
X2342Y1690D01*
X2342Y1686D01*
X2340Y1686D01*
X2340Y1682D01*
X2338Y1682D01*
X2338Y1680D01*
X2336Y1680D01*
X2336Y1660D01*
X2434Y1660D01*
X2434Y1690D01*
X2432Y1690D01*
X2432Y1692D01*
X2430Y1692D01*
X2430Y1694D01*
X2426Y1694D01*
X2426Y1696D01*
X2424Y1696D01*
X2424Y1698D01*
X2420Y1698D01*
X2420Y1700D01*
X2418Y1700D01*
X2418Y1702D01*
X2414Y1702D01*
X2414Y1704D01*
X2412Y1704D01*
X2412Y1706D01*
X2408Y1706D01*
X2408Y1708D01*
X2406Y1708D01*
X2406Y1710D01*
X2402Y1710D01*
X2402Y1712D01*
X2400Y1712D01*
X2400Y1714D01*
X2396Y1714D01*
X2396Y1716D01*
X2394Y1716D01*
X2394Y1718D01*
X2390Y1718D01*
X2390Y1720D01*
X2388Y1720D01*
X2388Y1722D01*
X2384Y1722D01*
X2384Y1724D01*
X2382Y1724D01*
X2382Y1726D01*
X2378Y1726D01*
X2378Y1728D01*
X2376Y1728D01*
X2376Y1730D01*
X2372Y1730D01*
X2372Y1732D01*
X2370Y1732D01*
X2370Y1734D01*
X2366Y1734D01*
X2366Y1736D01*
X2346Y1736D01*
G37*
D02*
G36*
X2528Y2084D02*
X2528Y2064D01*
X2530Y2064D01*
X2530Y2062D01*
X2532Y2062D01*
X2532Y2060D01*
X2534Y2060D01*
X2534Y2058D01*
X2536Y2058D01*
X2536Y2054D01*
X2538Y2054D01*
X2538Y2052D01*
X2540Y2052D01*
X2540Y2048D01*
X2542Y2048D01*
X2542Y2044D01*
X2544Y2044D01*
X2544Y2038D01*
X2546Y2038D01*
X2546Y2028D01*
X2548Y2028D01*
X2548Y2006D01*
X2546Y2006D01*
X2546Y1996D01*
X2544Y1996D01*
X2544Y1990D01*
X2542Y1990D01*
X2542Y1986D01*
X2540Y1986D01*
X2540Y1982D01*
X2538Y1982D01*
X2538Y1980D01*
X2536Y1980D01*
X2536Y1976D01*
X2534Y1976D01*
X2534Y1974D01*
X2532Y1974D01*
X2532Y1972D01*
X2530Y1972D01*
X2530Y1970D01*
X2528Y1970D01*
X2528Y1968D01*
X2526Y1968D01*
X2526Y1966D01*
X2524Y1966D01*
X2524Y1964D01*
X2522Y1964D01*
X2522Y1962D01*
X2520Y1962D01*
X2520Y1960D01*
X2518Y1960D01*
X2518Y1958D01*
X2514Y1958D01*
X2514Y1956D01*
X2510Y1956D01*
X2510Y1954D01*
X2508Y1954D01*
X2508Y1952D01*
X2502Y1952D01*
X2502Y1950D01*
X2496Y1950D01*
X2496Y1948D01*
X2446Y1948D01*
X2446Y1928D01*
X2448Y1928D01*
X2448Y1906D01*
X2446Y1906D01*
X2446Y1896D01*
X2444Y1896D01*
X2444Y1890D01*
X2442Y1890D01*
X2442Y1886D01*
X2440Y1886D01*
X2440Y1882D01*
X2438Y1882D01*
X2438Y1880D01*
X2436Y1880D01*
X2436Y1876D01*
X2434Y1876D01*
X2434Y1874D01*
X2432Y1874D01*
X2432Y1872D01*
X2430Y1872D01*
X2430Y1870D01*
X2428Y1870D01*
X2428Y1868D01*
X2426Y1868D01*
X2426Y1866D01*
X2424Y1866D01*
X2424Y1864D01*
X2422Y1864D01*
X2422Y1862D01*
X2420Y1862D01*
X2420Y1860D01*
X2418Y1860D01*
X2418Y1858D01*
X2414Y1858D01*
X2414Y1856D01*
X2410Y1856D01*
X2410Y1854D01*
X2408Y1854D01*
X2408Y1852D01*
X2402Y1852D01*
X2402Y1850D01*
X2396Y1850D01*
X2396Y1848D01*
X2708Y1848D01*
X2708Y1986D01*
X2816Y1986D01*
X2816Y2084D01*
X2528Y2084D01*
G37*
D02*
G36*
X3020Y2084D02*
X3020Y2064D01*
X3022Y2064D01*
X3022Y2062D01*
X3024Y2062D01*
X3024Y2060D01*
X3026Y2060D01*
X3026Y2058D01*
X3028Y2058D01*
X3028Y2056D01*
X3030Y2056D01*
X3030Y2052D01*
X3032Y2052D01*
X3032Y2050D01*
X3034Y2050D01*
X3034Y2046D01*
X3036Y2046D01*
X3036Y2042D01*
X3038Y2042D01*
X3038Y2038D01*
X3040Y2038D01*
X3040Y2028D01*
X3042Y2028D01*
X3042Y2006D01*
X3040Y2006D01*
X3040Y2002D01*
X3550Y2002D01*
X3550Y1858D01*
X3534Y1858D01*
X3534Y1836D01*
X3536Y1836D01*
X3536Y1834D01*
X3538Y1834D01*
X3538Y1832D01*
X3540Y1832D01*
X3540Y1828D01*
X3542Y1828D01*
X3542Y1824D01*
X3544Y1824D01*
X3544Y1820D01*
X3546Y1820D01*
X3546Y1816D01*
X3548Y1816D01*
X3548Y1808D01*
X3550Y1808D01*
X3550Y1778D01*
X3548Y1778D01*
X3548Y1770D01*
X3546Y1770D01*
X3546Y1764D01*
X3544Y1764D01*
X3544Y1760D01*
X3542Y1760D01*
X3542Y1756D01*
X3540Y1756D01*
X3540Y1754D01*
X3538Y1754D01*
X3538Y1750D01*
X3536Y1750D01*
X3536Y1748D01*
X3534Y1748D01*
X3534Y1746D01*
X3532Y1746D01*
X3532Y1744D01*
X3530Y1744D01*
X3530Y1742D01*
X3528Y1742D01*
X3528Y1740D01*
X3526Y1740D01*
X3526Y1738D01*
X3524Y1738D01*
X3524Y1736D01*
X3522Y1736D01*
X3522Y1734D01*
X3520Y1734D01*
X3520Y1712D01*
X3524Y1712D01*
X3524Y1710D01*
X3526Y1710D01*
X3526Y1708D01*
X3528Y1708D01*
X3528Y1706D01*
X3530Y1706D01*
X3530Y1704D01*
X3532Y1704D01*
X3532Y1702D01*
X3534Y1702D01*
X3534Y1700D01*
X3536Y1700D01*
X3536Y1696D01*
X3538Y1696D01*
X3538Y1694D01*
X3540Y1694D01*
X3540Y1690D01*
X3542Y1690D01*
X3542Y1686D01*
X3544Y1686D01*
X3544Y1682D01*
X3546Y1682D01*
X3546Y1678D01*
X3548Y1678D01*
X3548Y1670D01*
X3550Y1670D01*
X3550Y1640D01*
X3548Y1640D01*
X3548Y1632D01*
X3546Y1632D01*
X3546Y1626D01*
X3544Y1626D01*
X3544Y1622D01*
X3542Y1622D01*
X3542Y1618D01*
X3540Y1618D01*
X3540Y1616D01*
X3538Y1616D01*
X3538Y1612D01*
X3536Y1612D01*
X3536Y1610D01*
X3534Y1610D01*
X3534Y1608D01*
X3532Y1608D01*
X3532Y1606D01*
X3530Y1606D01*
X3530Y1604D01*
X3528Y1604D01*
X3528Y1602D01*
X3526Y1602D01*
X3526Y1600D01*
X3524Y1600D01*
X3524Y1598D01*
X3522Y1598D01*
X3522Y1596D01*
X3518Y1596D01*
X3518Y1576D01*
X3522Y1576D01*
X3522Y1574D01*
X3524Y1574D01*
X3524Y1572D01*
X3526Y1572D01*
X3526Y1570D01*
X3528Y1570D01*
X3528Y1568D01*
X3530Y1568D01*
X3530Y1566D01*
X3532Y1566D01*
X3532Y1564D01*
X3534Y1564D01*
X3534Y1562D01*
X3536Y1562D01*
X3536Y1558D01*
X3538Y1558D01*
X3538Y1556D01*
X3540Y1556D01*
X3540Y1552D01*
X3542Y1552D01*
X3542Y1550D01*
X3544Y1550D01*
X3544Y1544D01*
X3546Y1544D01*
X3546Y1540D01*
X3548Y1540D01*
X3548Y1532D01*
X3550Y1532D01*
X3550Y1502D01*
X3548Y1502D01*
X3548Y1494D01*
X3546Y1494D01*
X3546Y1488D01*
X3544Y1488D01*
X3544Y1484D01*
X3542Y1484D01*
X3542Y1482D01*
X3540Y1482D01*
X3540Y1478D01*
X3538Y1478D01*
X3538Y1476D01*
X3536Y1476D01*
X3536Y1472D01*
X3534Y1472D01*
X3534Y1470D01*
X3532Y1470D01*
X3532Y1468D01*
X3530Y1468D01*
X3530Y1466D01*
X3528Y1466D01*
X3528Y1464D01*
X3526Y1464D01*
X3526Y1462D01*
X3524Y1462D01*
X3524Y1460D01*
X3522Y1460D01*
X3522Y1458D01*
X3518Y1458D01*
X3518Y1438D01*
X3522Y1438D01*
X3522Y1436D01*
X3524Y1436D01*
X3524Y1434D01*
X3526Y1434D01*
X3526Y1432D01*
X3528Y1432D01*
X3528Y1430D01*
X3530Y1430D01*
X3530Y1428D01*
X3532Y1428D01*
X3532Y1426D01*
X3534Y1426D01*
X3534Y1424D01*
X3536Y1424D01*
X3536Y1420D01*
X3538Y1420D01*
X3538Y1418D01*
X3540Y1418D01*
X3540Y1414D01*
X3542Y1414D01*
X3542Y1412D01*
X3544Y1412D01*
X3544Y1408D01*
X3546Y1408D01*
X3546Y1402D01*
X3548Y1402D01*
X3548Y1394D01*
X3550Y1394D01*
X3550Y1364D01*
X3548Y1364D01*
X3548Y1356D01*
X3546Y1356D01*
X3546Y1352D01*
X3544Y1352D01*
X3544Y1346D01*
X3542Y1346D01*
X3542Y1344D01*
X3540Y1344D01*
X3540Y1340D01*
X3538Y1340D01*
X3538Y1338D01*
X3536Y1338D01*
X3536Y1334D01*
X3534Y1334D01*
X3534Y1332D01*
X3532Y1332D01*
X3532Y1330D01*
X3530Y1330D01*
X3530Y1328D01*
X3528Y1328D01*
X3528Y1326D01*
X3526Y1326D01*
X3526Y1324D01*
X3524Y1324D01*
X3524Y1322D01*
X3522Y1322D01*
X3522Y1320D01*
X3518Y1320D01*
X3518Y1300D01*
X3522Y1300D01*
X3522Y1298D01*
X3524Y1298D01*
X3524Y1296D01*
X3526Y1296D01*
X3526Y1294D01*
X3528Y1294D01*
X3528Y1292D01*
X3530Y1292D01*
X3530Y1290D01*
X3532Y1290D01*
X3532Y1288D01*
X3534Y1288D01*
X3534Y1286D01*
X3536Y1286D01*
X3536Y1284D01*
X3538Y1284D01*
X3538Y1280D01*
X3540Y1280D01*
X3540Y1278D01*
X3542Y1278D01*
X3542Y1274D01*
X3544Y1274D01*
X3544Y1270D01*
X3546Y1270D01*
X3546Y1264D01*
X3548Y1264D01*
X3548Y1256D01*
X3550Y1256D01*
X3550Y1226D01*
X3548Y1226D01*
X3548Y1218D01*
X3546Y1218D01*
X3546Y1214D01*
X3544Y1214D01*
X3544Y1210D01*
X3542Y1210D01*
X3542Y1206D01*
X3540Y1206D01*
X3540Y1202D01*
X3538Y1202D01*
X3538Y1200D01*
X3536Y1200D01*
X3536Y1196D01*
X3534Y1196D01*
X3534Y1194D01*
X3532Y1194D01*
X3532Y1192D01*
X3530Y1192D01*
X3530Y1190D01*
X3528Y1190D01*
X3528Y1188D01*
X3526Y1188D01*
X3526Y1186D01*
X3524Y1186D01*
X3524Y1184D01*
X3520Y1184D01*
X3520Y1182D01*
X3518Y1182D01*
X3518Y1180D01*
X3514Y1180D01*
X3514Y1178D01*
X3512Y1178D01*
X3512Y1176D01*
X3508Y1176D01*
X3508Y1174D01*
X3504Y1174D01*
X3504Y1172D01*
X3498Y1172D01*
X3498Y1170D01*
X3668Y1170D01*
X3668Y2084D01*
X3020Y2084D01*
G37*
D02*
G36*
X3040Y2002D02*
X3040Y1996D01*
X3038Y1996D01*
X3038Y1992D01*
X3036Y1992D01*
X3036Y1988D01*
X3034Y1988D01*
X3034Y1984D01*
X3032Y1984D01*
X3032Y1982D01*
X3030Y1982D01*
X3030Y1978D01*
X3028Y1978D01*
X3028Y1976D01*
X3026Y1976D01*
X3026Y1974D01*
X3024Y1974D01*
X3024Y1972D01*
X3022Y1972D01*
X3022Y1970D01*
X3020Y1970D01*
X3020Y1968D01*
X3018Y1968D01*
X3018Y1966D01*
X3016Y1966D01*
X3016Y1964D01*
X3012Y1964D01*
X3012Y1962D01*
X3010Y1962D01*
X3010Y1960D01*
X3006Y1960D01*
X3006Y1958D01*
X3002Y1958D01*
X3002Y1956D01*
X2996Y1956D01*
X2996Y1954D01*
X2848Y1954D01*
X2848Y1848D01*
X3422Y1848D01*
X3422Y1858D01*
X3406Y1858D01*
X3406Y2002D01*
X3040Y2002D01*
G37*
D02*
G36*
X2394Y1848D02*
X2394Y1846D01*
X3422Y1846D01*
X3422Y1848D01*
X2394Y1848D01*
G37*
D02*
G36*
X2394Y1848D02*
X2394Y1846D01*
X3422Y1846D01*
X3422Y1848D01*
X2394Y1848D01*
G37*
D02*
G36*
X2394Y1846D02*
X2394Y1828D01*
X2396Y1828D01*
X2396Y1826D01*
X2400Y1826D01*
X2400Y1824D01*
X2402Y1824D01*
X2402Y1822D01*
X2406Y1822D01*
X2406Y1820D01*
X2408Y1820D01*
X2408Y1818D01*
X2412Y1818D01*
X2412Y1816D01*
X2414Y1816D01*
X2414Y1814D01*
X2418Y1814D01*
X2418Y1812D01*
X2420Y1812D01*
X2420Y1810D01*
X2424Y1810D01*
X2424Y1808D01*
X2426Y1808D01*
X2426Y1806D01*
X2430Y1806D01*
X2430Y1804D01*
X2432Y1804D01*
X2432Y1802D01*
X2436Y1802D01*
X2436Y1800D01*
X2438Y1800D01*
X2438Y1798D01*
X2442Y1798D01*
X2442Y1796D01*
X2444Y1796D01*
X2444Y1794D01*
X2448Y1794D01*
X2448Y1792D01*
X2450Y1792D01*
X2450Y1790D01*
X2454Y1790D01*
X2454Y1788D01*
X2456Y1788D01*
X2456Y1786D01*
X2460Y1786D01*
X2460Y1784D01*
X2462Y1784D01*
X2462Y1782D01*
X2466Y1782D01*
X2466Y1780D01*
X2468Y1780D01*
X2468Y1778D01*
X2472Y1778D01*
X2472Y1776D01*
X2474Y1776D01*
X2474Y1774D01*
X2478Y1774D01*
X2478Y1772D01*
X2480Y1772D01*
X2480Y1770D01*
X2484Y1770D01*
X2484Y1768D01*
X2486Y1768D01*
X2486Y1766D01*
X2490Y1766D01*
X2490Y1764D01*
X2492Y1764D01*
X2492Y1762D01*
X2496Y1762D01*
X2496Y1760D01*
X2498Y1760D01*
X2498Y1758D01*
X2502Y1758D01*
X2502Y1756D01*
X2504Y1756D01*
X2504Y1754D01*
X2508Y1754D01*
X2508Y1752D01*
X2510Y1752D01*
X2510Y1750D01*
X2512Y1750D01*
X2512Y1748D01*
X2514Y1748D01*
X2514Y1746D01*
X2516Y1746D01*
X2516Y1742D01*
X2518Y1742D01*
X2518Y1738D01*
X2520Y1738D01*
X2520Y1732D01*
X2522Y1732D01*
X2522Y1602D01*
X2520Y1602D01*
X2520Y1596D01*
X2518Y1596D01*
X2518Y1592D01*
X2516Y1592D01*
X2516Y1588D01*
X2514Y1588D01*
X2514Y1586D01*
X2512Y1586D01*
X2512Y1584D01*
X2510Y1584D01*
X2510Y1582D01*
X2508Y1582D01*
X2508Y1580D01*
X2506Y1580D01*
X2506Y1578D01*
X2502Y1578D01*
X2502Y1576D01*
X2498Y1576D01*
X2498Y1574D01*
X2488Y1574D01*
X2488Y1572D01*
X1104Y1572D01*
X1104Y1570D01*
X1100Y1570D01*
X1100Y1568D01*
X1094Y1568D01*
X1094Y1566D01*
X3426Y1566D01*
X3426Y1568D01*
X3428Y1568D01*
X3428Y1570D01*
X3430Y1570D01*
X3430Y1572D01*
X3432Y1572D01*
X3432Y1574D01*
X3434Y1574D01*
X3434Y1576D01*
X3436Y1576D01*
X3436Y1596D01*
X3434Y1596D01*
X3434Y1598D01*
X3432Y1598D01*
X3432Y1600D01*
X3430Y1600D01*
X3430Y1602D01*
X3428Y1602D01*
X3428Y1604D01*
X3426Y1604D01*
X3426Y1606D01*
X3424Y1606D01*
X3424Y1608D01*
X3422Y1608D01*
X3422Y1610D01*
X3420Y1610D01*
X3420Y1612D01*
X3418Y1612D01*
X3418Y1616D01*
X3416Y1616D01*
X3416Y1618D01*
X3414Y1618D01*
X3414Y1622D01*
X3412Y1622D01*
X3412Y1626D01*
X3410Y1626D01*
X3410Y1630D01*
X3408Y1630D01*
X3408Y1638D01*
X3406Y1638D01*
X3406Y1672D01*
X3408Y1672D01*
X3408Y1678D01*
X3410Y1678D01*
X3410Y1684D01*
X3412Y1684D01*
X3412Y1688D01*
X3414Y1688D01*
X3414Y1692D01*
X3416Y1692D01*
X3416Y1694D01*
X3418Y1694D01*
X3418Y1698D01*
X3420Y1698D01*
X3420Y1700D01*
X3422Y1700D01*
X3422Y1702D01*
X3424Y1702D01*
X3424Y1704D01*
X3426Y1704D01*
X3426Y1706D01*
X3428Y1706D01*
X3428Y1708D01*
X3430Y1708D01*
X3430Y1710D01*
X3432Y1710D01*
X3432Y1712D01*
X3434Y1712D01*
X3434Y1714D01*
X3436Y1714D01*
X3436Y1734D01*
X3434Y1734D01*
X3434Y1736D01*
X3432Y1736D01*
X3432Y1738D01*
X3430Y1738D01*
X3430Y1740D01*
X3426Y1740D01*
X3426Y1744D01*
X3424Y1744D01*
X3424Y1746D01*
X3422Y1746D01*
X3422Y1748D01*
X3420Y1748D01*
X3420Y1750D01*
X3418Y1750D01*
X3418Y1752D01*
X3416Y1752D01*
X3416Y1756D01*
X3414Y1756D01*
X3414Y1760D01*
X3412Y1760D01*
X3412Y1764D01*
X3410Y1764D01*
X3410Y1768D01*
X3408Y1768D01*
X3408Y1774D01*
X3406Y1774D01*
X3406Y1810D01*
X3408Y1810D01*
X3408Y1816D01*
X3410Y1816D01*
X3410Y1822D01*
X3412Y1822D01*
X3412Y1826D01*
X3414Y1826D01*
X3414Y1830D01*
X3416Y1830D01*
X3416Y1832D01*
X3418Y1832D01*
X3418Y1834D01*
X3420Y1834D01*
X3420Y1838D01*
X3422Y1838D01*
X3422Y1846D01*
X2394Y1846D01*
G37*
D02*
G36*
X1022Y1580D02*
X1022Y1566D01*
X1060Y1566D01*
X1060Y1568D01*
X1056Y1568D01*
X1056Y1570D01*
X1052Y1570D01*
X1052Y1572D01*
X1050Y1572D01*
X1050Y1574D01*
X1046Y1574D01*
X1046Y1576D01*
X1044Y1576D01*
X1044Y1578D01*
X1042Y1578D01*
X1042Y1580D01*
X1022Y1580D01*
G37*
D02*
G36*
X1022Y1566D02*
X1022Y1564D01*
X3424Y1564D01*
X3424Y1566D01*
X1022Y1566D01*
G37*
D02*
G36*
X1022Y1566D02*
X1022Y1564D01*
X3424Y1564D01*
X3424Y1566D01*
X1022Y1566D01*
G37*
D02*
G36*
X1022Y1564D02*
X1022Y1170D01*
X3458Y1170D01*
X3458Y1172D01*
X3452Y1172D01*
X3452Y1174D01*
X3448Y1174D01*
X3448Y1176D01*
X3444Y1176D01*
X3444Y1178D01*
X3440Y1178D01*
X3440Y1180D01*
X3438Y1180D01*
X3438Y1182D01*
X3434Y1182D01*
X3434Y1184D01*
X3432Y1184D01*
X3432Y1186D01*
X3430Y1186D01*
X3430Y1188D01*
X3428Y1188D01*
X3428Y1190D01*
X3426Y1190D01*
X3426Y1192D01*
X3424Y1192D01*
X3424Y1194D01*
X3422Y1194D01*
X3422Y1196D01*
X3420Y1196D01*
X3420Y1198D01*
X3418Y1198D01*
X3418Y1202D01*
X3416Y1202D01*
X3416Y1204D01*
X3414Y1204D01*
X3414Y1208D01*
X3412Y1208D01*
X3412Y1212D01*
X3410Y1212D01*
X3410Y1218D01*
X3408Y1218D01*
X3408Y1224D01*
X3406Y1224D01*
X3406Y1258D01*
X3408Y1258D01*
X3408Y1266D01*
X3410Y1266D01*
X3410Y1270D01*
X3412Y1270D01*
X3412Y1274D01*
X3414Y1274D01*
X3414Y1278D01*
X3416Y1278D01*
X3416Y1280D01*
X3418Y1280D01*
X3418Y1284D01*
X3420Y1284D01*
X3420Y1286D01*
X3422Y1286D01*
X3422Y1288D01*
X3424Y1288D01*
X3424Y1290D01*
X3426Y1290D01*
X3426Y1292D01*
X3428Y1292D01*
X3428Y1294D01*
X3430Y1294D01*
X3430Y1296D01*
X3432Y1296D01*
X3432Y1298D01*
X3434Y1298D01*
X3434Y1300D01*
X3436Y1300D01*
X3436Y1320D01*
X3434Y1320D01*
X3434Y1322D01*
X3432Y1322D01*
X3432Y1324D01*
X3430Y1324D01*
X3430Y1326D01*
X3428Y1326D01*
X3428Y1328D01*
X3426Y1328D01*
X3426Y1330D01*
X3424Y1330D01*
X3424Y1332D01*
X3422Y1332D01*
X3422Y1334D01*
X3420Y1334D01*
X3420Y1336D01*
X3418Y1336D01*
X3418Y1340D01*
X3416Y1340D01*
X3416Y1342D01*
X3414Y1342D01*
X3414Y1346D01*
X3412Y1346D01*
X3412Y1350D01*
X3410Y1350D01*
X3410Y1354D01*
X3408Y1354D01*
X3408Y1362D01*
X3406Y1362D01*
X3406Y1396D01*
X3408Y1396D01*
X3408Y1404D01*
X3410Y1404D01*
X3410Y1408D01*
X3412Y1408D01*
X3412Y1412D01*
X3414Y1412D01*
X3414Y1416D01*
X3416Y1416D01*
X3416Y1418D01*
X3418Y1418D01*
X3418Y1422D01*
X3420Y1422D01*
X3420Y1424D01*
X3422Y1424D01*
X3422Y1426D01*
X3424Y1426D01*
X3424Y1428D01*
X3426Y1428D01*
X3426Y1430D01*
X3428Y1430D01*
X3428Y1432D01*
X3430Y1432D01*
X3430Y1434D01*
X3432Y1434D01*
X3432Y1436D01*
X3434Y1436D01*
X3434Y1438D01*
X3436Y1438D01*
X3436Y1458D01*
X3434Y1458D01*
X3434Y1460D01*
X3432Y1460D01*
X3432Y1462D01*
X3430Y1462D01*
X3430Y1464D01*
X3428Y1464D01*
X3428Y1466D01*
X3426Y1466D01*
X3426Y1468D01*
X3424Y1468D01*
X3424Y1470D01*
X3422Y1470D01*
X3422Y1472D01*
X3420Y1472D01*
X3420Y1474D01*
X3418Y1474D01*
X3418Y1478D01*
X3416Y1478D01*
X3416Y1480D01*
X3414Y1480D01*
X3414Y1484D01*
X3412Y1484D01*
X3412Y1488D01*
X3410Y1488D01*
X3410Y1492D01*
X3408Y1492D01*
X3408Y1500D01*
X3406Y1500D01*
X3406Y1534D01*
X3408Y1534D01*
X3408Y1542D01*
X3410Y1542D01*
X3410Y1546D01*
X3412Y1546D01*
X3412Y1550D01*
X3414Y1550D01*
X3414Y1554D01*
X3416Y1554D01*
X3416Y1556D01*
X3418Y1556D01*
X3418Y1560D01*
X3420Y1560D01*
X3420Y1562D01*
X3422Y1562D01*
X3422Y1564D01*
X1022Y1564D01*
G37*
D02*
G36*
X1022Y1170D02*
X1022Y1168D01*
X3668Y1168D01*
X3668Y1170D01*
X1022Y1170D01*
G37*
D02*
G36*
X1022Y1170D02*
X1022Y1168D01*
X3668Y1168D01*
X3668Y1170D01*
X1022Y1170D01*
G37*
D02*
G36*
X1022Y1168D02*
X1022Y1162D01*
X2994Y1162D01*
X2994Y1160D01*
X3000Y1160D01*
X3000Y1158D01*
X3004Y1158D01*
X3004Y1156D01*
X3006Y1156D01*
X3006Y1154D01*
X3010Y1154D01*
X3010Y1152D01*
X3012Y1152D01*
X3012Y1150D01*
X3014Y1150D01*
X3014Y1146D01*
X3016Y1146D01*
X3016Y1144D01*
X3018Y1144D01*
X3018Y1140D01*
X3020Y1140D01*
X3020Y1132D01*
X3022Y1132D01*
X3022Y988D01*
X3248Y988D01*
X3248Y974D01*
X3490Y974D01*
X3490Y972D01*
X3500Y972D01*
X3500Y970D01*
X3506Y970D01*
X3506Y968D01*
X3508Y968D01*
X3508Y966D01*
X3512Y966D01*
X3512Y964D01*
X3514Y964D01*
X3514Y962D01*
X3518Y962D01*
X3518Y960D01*
X3520Y960D01*
X3520Y958D01*
X3522Y958D01*
X3522Y956D01*
X3524Y956D01*
X3524Y952D01*
X3526Y952D01*
X3526Y950D01*
X3528Y950D01*
X3528Y946D01*
X3530Y946D01*
X3530Y940D01*
X3532Y940D01*
X3532Y934D01*
X3534Y934D01*
X3534Y488D01*
X3550Y488D01*
X3550Y346D01*
X3548Y346D01*
X3548Y344D01*
X3534Y344D01*
X3534Y324D01*
X3536Y324D01*
X3536Y320D01*
X3538Y320D01*
X3538Y318D01*
X3540Y318D01*
X3540Y314D01*
X3542Y314D01*
X3542Y312D01*
X3544Y312D01*
X3544Y308D01*
X3546Y308D01*
X3546Y302D01*
X3548Y302D01*
X3548Y294D01*
X3550Y294D01*
X3550Y264D01*
X3548Y264D01*
X3548Y256D01*
X3546Y256D01*
X3546Y252D01*
X3544Y252D01*
X3544Y246D01*
X3542Y246D01*
X3542Y244D01*
X3540Y244D01*
X3540Y240D01*
X3538Y240D01*
X3538Y238D01*
X3536Y238D01*
X3536Y234D01*
X3534Y234D01*
X3534Y232D01*
X3532Y232D01*
X3532Y230D01*
X3530Y230D01*
X3530Y228D01*
X3528Y228D01*
X3528Y226D01*
X3526Y226D01*
X3526Y224D01*
X3524Y224D01*
X3524Y222D01*
X3522Y222D01*
X3522Y220D01*
X3518Y220D01*
X3518Y218D01*
X3516Y218D01*
X3516Y216D01*
X3512Y216D01*
X3512Y214D01*
X3508Y214D01*
X3508Y212D01*
X3504Y212D01*
X3504Y210D01*
X3498Y210D01*
X3498Y208D01*
X3668Y208D01*
X3668Y1168D01*
X1022Y1168D01*
G37*
D02*
G36*
X1424Y1074D02*
X1424Y1054D01*
X1426Y1054D01*
X1426Y1052D01*
X1428Y1052D01*
X1428Y1048D01*
X1430Y1048D01*
X1430Y1044D01*
X1432Y1044D01*
X1432Y1038D01*
X1434Y1038D01*
X1434Y988D01*
X2794Y988D01*
X2794Y986D01*
X2800Y986D01*
X2800Y984D01*
X2806Y984D01*
X2806Y982D01*
X2810Y982D01*
X2810Y980D01*
X2814Y980D01*
X2814Y978D01*
X2816Y978D01*
X2816Y976D01*
X2820Y976D01*
X2820Y974D01*
X2822Y974D01*
X2822Y972D01*
X2824Y972D01*
X2824Y970D01*
X2826Y970D01*
X2826Y968D01*
X2828Y968D01*
X2828Y966D01*
X2830Y966D01*
X2830Y964D01*
X2832Y964D01*
X2832Y962D01*
X2834Y962D01*
X2834Y960D01*
X2836Y960D01*
X2836Y956D01*
X2838Y956D01*
X2838Y954D01*
X2840Y954D01*
X2840Y950D01*
X2842Y950D01*
X2842Y946D01*
X2844Y946D01*
X2844Y942D01*
X2846Y942D01*
X2846Y936D01*
X2848Y936D01*
X2848Y898D01*
X2846Y898D01*
X2846Y892D01*
X2844Y892D01*
X2844Y886D01*
X2842Y886D01*
X2842Y884D01*
X2840Y884D01*
X2840Y880D01*
X2838Y880D01*
X2838Y876D01*
X2836Y876D01*
X2836Y874D01*
X2834Y874D01*
X2834Y872D01*
X2832Y872D01*
X2832Y870D01*
X2830Y870D01*
X2830Y868D01*
X2828Y868D01*
X2828Y866D01*
X2826Y866D01*
X2826Y864D01*
X2824Y864D01*
X2824Y862D01*
X2822Y862D01*
X2822Y860D01*
X2820Y860D01*
X2820Y858D01*
X2816Y858D01*
X2816Y856D01*
X2814Y856D01*
X2814Y854D01*
X2810Y854D01*
X2810Y852D01*
X2806Y852D01*
X2806Y850D01*
X2802Y850D01*
X2802Y848D01*
X2794Y848D01*
X2794Y846D01*
X2962Y846D01*
X2962Y848D01*
X2954Y848D01*
X2954Y850D01*
X2950Y850D01*
X2950Y852D01*
X2946Y852D01*
X2946Y854D01*
X2942Y854D01*
X2942Y856D01*
X2938Y856D01*
X2938Y858D01*
X2936Y858D01*
X2936Y860D01*
X2934Y860D01*
X2934Y862D01*
X2932Y862D01*
X2932Y864D01*
X2928Y864D01*
X2928Y866D01*
X2926Y866D01*
X2926Y868D01*
X2924Y868D01*
X2924Y872D01*
X2922Y872D01*
X2922Y874D01*
X2920Y874D01*
X2920Y876D01*
X2918Y876D01*
X2918Y880D01*
X2916Y880D01*
X2916Y882D01*
X2914Y882D01*
X2914Y886D01*
X2912Y886D01*
X2912Y890D01*
X2910Y890D01*
X2910Y896D01*
X2908Y896D01*
X2908Y906D01*
X2906Y906D01*
X2906Y928D01*
X2908Y928D01*
X2908Y938D01*
X2910Y938D01*
X2910Y944D01*
X2912Y944D01*
X2912Y948D01*
X2914Y948D01*
X2914Y952D01*
X2916Y952D01*
X2916Y954D01*
X2918Y954D01*
X2918Y958D01*
X2920Y958D01*
X2920Y960D01*
X2922Y960D01*
X2922Y962D01*
X2924Y962D01*
X2924Y964D01*
X2926Y964D01*
X2926Y968D01*
X2930Y968D01*
X2930Y970D01*
X2932Y970D01*
X2932Y972D01*
X2934Y972D01*
X2934Y1074D01*
X1424Y1074D01*
G37*
D02*
G36*
X1434Y988D02*
X1434Y874D01*
X1796Y874D01*
X1796Y872D01*
X1804Y872D01*
X1804Y870D01*
X1808Y870D01*
X1808Y868D01*
X1812Y868D01*
X1812Y866D01*
X1814Y866D01*
X1814Y864D01*
X1816Y864D01*
X1816Y862D01*
X1820Y862D01*
X1820Y860D01*
X1822Y860D01*
X1822Y858D01*
X1824Y858D01*
X1824Y856D01*
X1826Y856D01*
X1826Y854D01*
X1828Y854D01*
X1828Y852D01*
X1830Y852D01*
X1830Y850D01*
X1832Y850D01*
X1832Y848D01*
X1834Y848D01*
X1834Y846D01*
X2762Y846D01*
X2762Y848D01*
X2754Y848D01*
X2754Y850D01*
X2750Y850D01*
X2750Y852D01*
X2746Y852D01*
X2746Y854D01*
X2742Y854D01*
X2742Y856D01*
X2738Y856D01*
X2738Y858D01*
X2736Y858D01*
X2736Y860D01*
X2734Y860D01*
X2734Y862D01*
X2732Y862D01*
X2732Y864D01*
X2728Y864D01*
X2728Y866D01*
X2726Y866D01*
X2726Y868D01*
X2724Y868D01*
X2724Y872D01*
X2722Y872D01*
X2722Y874D01*
X2720Y874D01*
X2720Y876D01*
X2718Y876D01*
X2718Y880D01*
X2716Y880D01*
X2716Y882D01*
X2714Y882D01*
X2714Y886D01*
X2712Y886D01*
X2712Y890D01*
X2710Y890D01*
X2710Y896D01*
X2708Y896D01*
X2708Y906D01*
X2706Y906D01*
X2706Y928D01*
X2708Y928D01*
X2708Y938D01*
X2710Y938D01*
X2710Y944D01*
X2712Y944D01*
X2712Y948D01*
X2714Y948D01*
X2714Y952D01*
X2716Y952D01*
X2716Y954D01*
X2718Y954D01*
X2718Y958D01*
X2720Y958D01*
X2720Y960D01*
X2722Y960D01*
X2722Y962D01*
X2724Y962D01*
X2724Y964D01*
X2726Y964D01*
X2726Y968D01*
X2730Y968D01*
X2730Y970D01*
X2732Y970D01*
X2732Y972D01*
X2734Y972D01*
X2734Y974D01*
X2736Y974D01*
X2736Y976D01*
X2738Y976D01*
X2738Y978D01*
X2742Y978D01*
X2742Y980D01*
X2746Y980D01*
X2746Y982D01*
X2750Y982D01*
X2750Y984D01*
X2754Y984D01*
X2754Y986D01*
X2762Y986D01*
X2762Y988D01*
X1434Y988D01*
G37*
D02*
G36*
X3022Y988D02*
X3022Y972D01*
X3024Y972D01*
X3024Y970D01*
X3026Y970D01*
X3026Y968D01*
X3028Y968D01*
X3028Y966D01*
X3030Y966D01*
X3030Y964D01*
X3032Y964D01*
X3032Y962D01*
X3034Y962D01*
X3034Y960D01*
X3036Y960D01*
X3036Y956D01*
X3038Y956D01*
X3038Y954D01*
X3040Y954D01*
X3040Y950D01*
X3042Y950D01*
X3042Y946D01*
X3044Y946D01*
X3044Y942D01*
X3046Y942D01*
X3046Y936D01*
X3048Y936D01*
X3048Y898D01*
X3046Y898D01*
X3046Y892D01*
X3044Y892D01*
X3044Y886D01*
X3042Y886D01*
X3042Y884D01*
X3040Y884D01*
X3040Y880D01*
X3038Y880D01*
X3038Y876D01*
X3036Y876D01*
X3036Y874D01*
X3034Y874D01*
X3034Y872D01*
X3032Y872D01*
X3032Y870D01*
X3030Y870D01*
X3030Y868D01*
X3028Y868D01*
X3028Y866D01*
X3026Y866D01*
X3026Y864D01*
X3024Y864D01*
X3024Y862D01*
X3022Y862D01*
X3022Y860D01*
X3020Y860D01*
X3020Y858D01*
X3016Y858D01*
X3016Y856D01*
X3014Y856D01*
X3014Y854D01*
X3010Y854D01*
X3010Y852D01*
X3006Y852D01*
X3006Y850D01*
X3002Y850D01*
X3002Y848D01*
X2994Y848D01*
X2994Y846D01*
X3106Y846D01*
X3106Y988D01*
X3022Y988D01*
G37*
D02*
G36*
X3248Y862D02*
X3248Y846D01*
X3234Y846D01*
X3234Y702D01*
X3232Y702D01*
X3232Y694D01*
X3230Y694D01*
X3230Y690D01*
X3228Y690D01*
X3228Y686D01*
X3226Y686D01*
X3226Y684D01*
X3224Y684D01*
X3224Y680D01*
X3222Y680D01*
X3222Y678D01*
X3220Y678D01*
X3220Y676D01*
X3218Y676D01*
X3218Y674D01*
X3216Y674D01*
X3216Y672D01*
X3212Y672D01*
X3212Y670D01*
X3210Y670D01*
X3210Y668D01*
X3206Y668D01*
X3206Y666D01*
X3200Y666D01*
X3200Y664D01*
X3192Y664D01*
X3192Y662D01*
X3422Y662D01*
X3422Y862D01*
X3248Y862D01*
G37*
D02*
G36*
X1836Y846D02*
X1836Y844D01*
X3122Y844D01*
X3122Y846D01*
X1836Y846D01*
G37*
D02*
G36*
X1836Y846D02*
X1836Y844D01*
X3122Y844D01*
X3122Y846D01*
X1836Y846D01*
G37*
D02*
G36*
X1836Y846D02*
X1836Y844D01*
X3122Y844D01*
X3122Y846D01*
X1836Y846D01*
G37*
D02*
G36*
X1836Y844D02*
X1836Y842D01*
X1838Y842D01*
X1838Y840D01*
X1840Y840D01*
X1840Y838D01*
X1842Y838D01*
X1842Y836D01*
X1844Y836D01*
X1844Y834D01*
X1846Y834D01*
X1846Y832D01*
X1848Y832D01*
X1848Y830D01*
X1850Y830D01*
X1850Y828D01*
X1852Y828D01*
X1852Y826D01*
X1854Y826D01*
X1854Y824D01*
X1856Y824D01*
X1856Y822D01*
X1858Y822D01*
X1858Y820D01*
X1860Y820D01*
X1860Y818D01*
X1862Y818D01*
X1862Y816D01*
X1864Y816D01*
X1864Y814D01*
X1866Y814D01*
X1866Y812D01*
X1868Y812D01*
X1868Y810D01*
X1870Y810D01*
X1870Y808D01*
X1872Y808D01*
X1872Y806D01*
X1874Y806D01*
X1874Y804D01*
X1876Y804D01*
X1876Y802D01*
X1878Y802D01*
X1878Y800D01*
X1880Y800D01*
X1880Y798D01*
X1882Y798D01*
X1882Y796D01*
X1884Y796D01*
X1884Y794D01*
X1886Y794D01*
X1886Y792D01*
X1888Y792D01*
X1888Y790D01*
X1890Y790D01*
X1890Y788D01*
X1892Y788D01*
X1892Y786D01*
X1894Y786D01*
X1894Y784D01*
X1896Y784D01*
X1896Y782D01*
X1898Y782D01*
X1898Y780D01*
X1900Y780D01*
X1900Y778D01*
X1902Y778D01*
X1902Y776D01*
X1904Y776D01*
X1904Y774D01*
X3122Y774D01*
X3122Y844D01*
X1836Y844D01*
G37*
D02*
G36*
X1434Y762D02*
X1434Y662D01*
X1862Y662D01*
X1862Y664D01*
X1854Y664D01*
X1854Y666D01*
X1848Y666D01*
X1848Y668D01*
X1846Y668D01*
X1846Y670D01*
X1842Y670D01*
X1842Y672D01*
X1840Y672D01*
X1840Y674D01*
X1836Y674D01*
X1836Y676D01*
X1834Y676D01*
X1834Y678D01*
X1832Y678D01*
X1832Y680D01*
X1830Y680D01*
X1830Y682D01*
X1828Y682D01*
X1828Y684D01*
X1826Y684D01*
X1826Y686D01*
X1824Y686D01*
X1824Y688D01*
X1822Y688D01*
X1822Y692D01*
X1820Y692D01*
X1820Y694D01*
X1818Y694D01*
X1818Y696D01*
X1816Y696D01*
X1816Y698D01*
X1814Y698D01*
X1814Y700D01*
X1812Y700D01*
X1812Y702D01*
X1810Y702D01*
X1810Y704D01*
X1808Y704D01*
X1808Y706D01*
X1806Y706D01*
X1806Y708D01*
X1804Y708D01*
X1804Y710D01*
X1802Y710D01*
X1802Y712D01*
X1800Y712D01*
X1800Y714D01*
X1798Y714D01*
X1798Y716D01*
X1796Y716D01*
X1796Y718D01*
X1794Y718D01*
X1794Y720D01*
X1792Y720D01*
X1792Y722D01*
X1790Y722D01*
X1790Y724D01*
X1788Y724D01*
X1788Y726D01*
X1786Y726D01*
X1786Y728D01*
X1784Y728D01*
X1784Y730D01*
X1782Y730D01*
X1782Y732D01*
X1780Y732D01*
X1780Y734D01*
X1778Y734D01*
X1778Y736D01*
X1776Y736D01*
X1776Y738D01*
X1774Y738D01*
X1774Y740D01*
X1772Y740D01*
X1772Y742D01*
X1770Y742D01*
X1770Y744D01*
X1768Y744D01*
X1768Y746D01*
X1766Y746D01*
X1766Y748D01*
X1764Y748D01*
X1764Y750D01*
X1762Y750D01*
X1762Y752D01*
X1760Y752D01*
X1760Y754D01*
X1758Y754D01*
X1758Y756D01*
X1756Y756D01*
X1756Y758D01*
X1754Y758D01*
X1754Y760D01*
X1752Y760D01*
X1752Y762D01*
X1434Y762D01*
G37*
D02*
G36*
X1434Y662D02*
X1434Y660D01*
X3422Y660D01*
X3422Y662D01*
X1434Y662D01*
G37*
D02*
G36*
X1434Y662D02*
X1434Y660D01*
X3422Y660D01*
X3422Y662D01*
X1434Y662D01*
G37*
D02*
G36*
X1434Y660D02*
X1434Y572D01*
X2768Y572D01*
X2768Y570D01*
X2774Y570D01*
X2774Y568D01*
X2794Y568D01*
X2794Y566D01*
X2800Y566D01*
X2800Y564D01*
X2804Y564D01*
X2804Y562D01*
X2808Y562D01*
X2808Y560D01*
X2810Y560D01*
X2810Y558D01*
X2812Y558D01*
X2812Y556D01*
X2814Y556D01*
X2814Y554D01*
X2816Y554D01*
X2816Y552D01*
X2818Y552D01*
X2818Y550D01*
X2820Y550D01*
X2820Y548D01*
X2822Y548D01*
X2822Y546D01*
X2824Y546D01*
X2824Y542D01*
X2826Y542D01*
X2826Y540D01*
X2828Y540D01*
X2828Y534D01*
X2830Y534D01*
X2830Y524D01*
X2832Y524D01*
X2832Y508D01*
X2830Y508D01*
X2830Y498D01*
X2828Y498D01*
X2828Y494D01*
X2826Y494D01*
X2826Y490D01*
X2824Y490D01*
X2824Y488D01*
X2822Y488D01*
X2822Y484D01*
X2820Y484D01*
X2820Y482D01*
X2818Y482D01*
X2818Y480D01*
X2816Y480D01*
X2816Y478D01*
X2814Y478D01*
X2814Y476D01*
X2812Y476D01*
X2812Y474D01*
X2808Y474D01*
X2808Y472D01*
X2806Y472D01*
X2806Y470D01*
X2802Y470D01*
X2802Y468D01*
X2798Y468D01*
X2798Y466D01*
X2788Y466D01*
X2788Y464D01*
X2772Y464D01*
X2772Y462D01*
X2762Y462D01*
X2762Y460D01*
X3406Y460D01*
X3406Y488D01*
X3422Y488D01*
X3422Y660D01*
X1434Y660D01*
G37*
D02*
G36*
X1434Y572D02*
X1434Y486D01*
X1648Y486D01*
X1648Y460D01*
X1894Y460D01*
X1894Y462D01*
X1886Y462D01*
X1886Y464D01*
X1868Y464D01*
X1868Y466D01*
X1860Y466D01*
X1860Y468D01*
X1854Y468D01*
X1854Y470D01*
X1852Y470D01*
X1852Y472D01*
X1848Y472D01*
X1848Y474D01*
X1846Y474D01*
X1846Y476D01*
X1844Y476D01*
X1844Y478D01*
X1840Y478D01*
X1840Y480D01*
X1838Y480D01*
X1838Y484D01*
X1836Y484D01*
X1836Y486D01*
X1834Y486D01*
X1834Y488D01*
X1832Y488D01*
X1832Y492D01*
X1830Y492D01*
X1830Y496D01*
X1828Y496D01*
X1828Y500D01*
X1826Y500D01*
X1826Y532D01*
X1828Y532D01*
X1828Y538D01*
X1830Y538D01*
X1830Y542D01*
X1832Y542D01*
X1832Y544D01*
X1834Y544D01*
X1834Y548D01*
X1836Y548D01*
X1836Y550D01*
X1838Y550D01*
X1838Y552D01*
X1840Y552D01*
X1840Y554D01*
X1842Y554D01*
X1842Y556D01*
X1844Y556D01*
X1844Y558D01*
X1846Y558D01*
X1846Y560D01*
X1850Y560D01*
X1850Y562D01*
X1852Y562D01*
X1852Y564D01*
X1856Y564D01*
X1856Y566D01*
X1862Y566D01*
X1862Y568D01*
X1882Y568D01*
X1882Y570D01*
X1888Y570D01*
X1888Y572D01*
X1434Y572D01*
G37*
D02*
G36*
X1434Y486D02*
X1434Y482D01*
X1454Y482D01*
X1454Y484D01*
X1460Y484D01*
X1460Y486D01*
X1434Y486D01*
G37*
D02*
G36*
X1648Y460D02*
X1648Y458D01*
X3406Y458D01*
X3406Y460D01*
X1648Y460D01*
G37*
D02*
G36*
X1648Y460D02*
X1648Y458D01*
X3406Y458D01*
X3406Y460D01*
X1648Y460D01*
G37*
D02*
G36*
X1648Y458D02*
X1648Y348D01*
X3406Y348D01*
X3406Y458D01*
X1648Y458D01*
G37*
D02*
G36*
X1434Y352D02*
X1434Y348D01*
X1460Y348D01*
X1460Y350D01*
X1454Y350D01*
X1454Y352D01*
X1434Y352D01*
G37*
D02*
G36*
X1434Y348D02*
X1434Y346D01*
X3406Y346D01*
X3406Y348D01*
X1434Y348D01*
G37*
D02*
G36*
X1434Y348D02*
X1434Y346D01*
X3406Y346D01*
X3406Y348D01*
X1434Y348D01*
G37*
D02*
G36*
X1434Y346D02*
X1434Y336D01*
X1436Y336D01*
X1436Y332D01*
X1438Y332D01*
X1438Y328D01*
X1440Y328D01*
X1440Y324D01*
X1442Y324D01*
X1442Y320D01*
X1444Y320D01*
X1444Y314D01*
X1446Y314D01*
X1446Y310D01*
X1448Y310D01*
X1448Y306D01*
X1450Y306D01*
X1450Y302D01*
X1452Y302D01*
X1452Y298D01*
X1454Y298D01*
X1454Y294D01*
X1456Y294D01*
X1456Y290D01*
X1458Y290D01*
X1458Y288D01*
X3150Y288D01*
X3150Y208D01*
X3458Y208D01*
X3458Y210D01*
X3452Y210D01*
X3452Y212D01*
X3448Y212D01*
X3448Y214D01*
X3444Y214D01*
X3444Y216D01*
X3440Y216D01*
X3440Y218D01*
X3438Y218D01*
X3438Y220D01*
X3434Y220D01*
X3434Y222D01*
X3432Y222D01*
X3432Y224D01*
X3430Y224D01*
X3430Y226D01*
X3428Y226D01*
X3428Y228D01*
X3426Y228D01*
X3426Y230D01*
X3424Y230D01*
X3424Y232D01*
X3422Y232D01*
X3422Y234D01*
X3420Y234D01*
X3420Y236D01*
X3418Y236D01*
X3418Y240D01*
X3416Y240D01*
X3416Y242D01*
X3414Y242D01*
X3414Y246D01*
X3412Y246D01*
X3412Y250D01*
X3410Y250D01*
X3410Y254D01*
X3408Y254D01*
X3408Y262D01*
X3406Y262D01*
X3406Y296D01*
X3408Y296D01*
X3408Y304D01*
X3410Y304D01*
X3410Y308D01*
X3412Y308D01*
X3412Y312D01*
X3414Y312D01*
X3414Y316D01*
X3416Y316D01*
X3416Y318D01*
X3418Y318D01*
X3418Y322D01*
X3420Y322D01*
X3420Y324D01*
X3422Y324D01*
X3422Y344D01*
X3406Y344D01*
X3406Y346D01*
X1434Y346D01*
G37*
D02*
G36*
X1458Y288D02*
X1458Y286D01*
X1460Y286D01*
X1460Y282D01*
X1462Y282D01*
X1462Y278D01*
X1464Y278D01*
X1464Y274D01*
X1466Y274D01*
X1466Y270D01*
X1468Y270D01*
X1468Y266D01*
X1470Y266D01*
X1470Y262D01*
X1472Y262D01*
X1472Y258D01*
X1474Y258D01*
X1474Y254D01*
X1476Y254D01*
X1476Y250D01*
X1478Y250D01*
X1478Y246D01*
X1480Y246D01*
X1480Y242D01*
X1482Y242D01*
X1482Y238D01*
X1484Y238D01*
X1484Y234D01*
X1486Y234D01*
X1486Y230D01*
X1488Y230D01*
X1488Y226D01*
X1490Y226D01*
X1490Y222D01*
X1492Y222D01*
X1492Y218D01*
X1494Y218D01*
X1494Y214D01*
X1496Y214D01*
X1496Y210D01*
X1498Y210D01*
X1498Y206D01*
X1500Y206D01*
X1500Y202D01*
X1502Y202D01*
X1502Y198D01*
X1504Y198D01*
X1504Y194D01*
X1506Y194D01*
X1506Y190D01*
X1508Y190D01*
X1508Y186D01*
X2496Y186D01*
X2496Y184D01*
X2502Y184D01*
X2502Y182D01*
X2506Y182D01*
X2506Y180D01*
X2510Y180D01*
X2510Y178D01*
X2514Y178D01*
X2514Y176D01*
X2516Y176D01*
X2516Y174D01*
X2520Y174D01*
X2520Y172D01*
X2522Y172D01*
X2522Y170D01*
X2524Y170D01*
X2524Y168D01*
X2526Y168D01*
X2526Y166D01*
X2528Y166D01*
X2528Y164D01*
X2530Y164D01*
X2530Y162D01*
X2532Y162D01*
X2532Y160D01*
X2534Y160D01*
X2534Y158D01*
X2536Y158D01*
X2536Y154D01*
X2538Y154D01*
X2538Y152D01*
X2540Y152D01*
X2540Y148D01*
X2542Y148D01*
X2542Y144D01*
X2930Y144D01*
X2930Y146D01*
X2920Y146D01*
X2920Y148D01*
X2914Y148D01*
X2914Y150D01*
X2910Y150D01*
X2910Y152D01*
X2906Y152D01*
X2906Y154D01*
X2902Y154D01*
X2902Y156D01*
X2900Y156D01*
X2900Y158D01*
X2896Y158D01*
X2896Y160D01*
X2894Y160D01*
X2894Y162D01*
X2892Y162D01*
X2892Y164D01*
X2890Y164D01*
X2890Y166D01*
X2888Y166D01*
X2888Y168D01*
X2886Y168D01*
X2886Y170D01*
X2884Y170D01*
X2884Y172D01*
X2882Y172D01*
X2882Y174D01*
X2880Y174D01*
X2880Y178D01*
X2878Y178D01*
X2878Y180D01*
X2876Y180D01*
X2876Y184D01*
X2874Y184D01*
X2874Y188D01*
X2872Y188D01*
X2872Y194D01*
X2870Y194D01*
X2870Y200D01*
X2868Y200D01*
X2868Y234D01*
X2870Y234D01*
X2870Y240D01*
X2872Y240D01*
X2872Y246D01*
X2874Y246D01*
X2874Y250D01*
X2876Y250D01*
X2876Y254D01*
X2878Y254D01*
X2878Y256D01*
X2880Y256D01*
X2880Y260D01*
X2882Y260D01*
X2882Y262D01*
X2884Y262D01*
X2884Y264D01*
X2886Y264D01*
X2886Y266D01*
X2888Y266D01*
X2888Y268D01*
X2890Y268D01*
X2890Y270D01*
X2892Y270D01*
X2892Y272D01*
X2894Y272D01*
X2894Y274D01*
X2896Y274D01*
X2896Y276D01*
X2900Y276D01*
X2900Y278D01*
X2902Y278D01*
X2902Y280D01*
X2906Y280D01*
X2906Y282D01*
X2910Y282D01*
X2910Y284D01*
X2914Y284D01*
X2914Y286D01*
X2920Y286D01*
X2920Y288D01*
X1458Y288D01*
G37*
D02*
G36*
X2960Y288D02*
X2960Y286D01*
X2966Y286D01*
X2966Y284D01*
X2970Y284D01*
X2970Y282D01*
X2974Y282D01*
X2974Y280D01*
X2978Y280D01*
X2978Y278D01*
X2980Y278D01*
X2980Y276D01*
X2984Y276D01*
X2984Y274D01*
X2986Y274D01*
X2986Y272D01*
X3006Y272D01*
X3006Y288D01*
X2960Y288D01*
G37*
D02*
G36*
X3150Y208D02*
X3150Y206D01*
X3668Y206D01*
X3668Y208D01*
X3150Y208D01*
G37*
D02*
G36*
X3150Y208D02*
X3150Y206D01*
X3668Y206D01*
X3668Y208D01*
X3150Y208D01*
G37*
D02*
G36*
X3150Y206D02*
X3150Y146D01*
X3148Y146D01*
X3148Y144D01*
X3668Y144D01*
X3668Y206D01*
X3150Y206D01*
G37*
D02*
G36*
X1510Y186D02*
X1510Y182D01*
X1512Y182D01*
X1512Y178D01*
X1514Y178D01*
X1514Y176D01*
X1516Y176D01*
X1516Y174D01*
X1538Y174D01*
X1538Y176D01*
X1542Y176D01*
X1542Y178D01*
X1544Y178D01*
X1544Y180D01*
X1548Y180D01*
X1548Y182D01*
X1554Y182D01*
X1554Y184D01*
X1560Y184D01*
X1560Y186D01*
X1510Y186D01*
G37*
D02*
G36*
X1596Y186D02*
X1596Y184D01*
X1602Y184D01*
X1602Y182D01*
X1606Y182D01*
X1606Y180D01*
X1610Y180D01*
X1610Y178D01*
X1614Y178D01*
X1614Y176D01*
X1616Y176D01*
X1616Y174D01*
X1638Y174D01*
X1638Y176D01*
X1642Y176D01*
X1642Y178D01*
X1644Y178D01*
X1644Y180D01*
X1648Y180D01*
X1648Y182D01*
X1654Y182D01*
X1654Y184D01*
X1660Y184D01*
X1660Y186D01*
X1596Y186D01*
G37*
D02*
G36*
X1696Y186D02*
X1696Y184D01*
X1702Y184D01*
X1702Y182D01*
X1706Y182D01*
X1706Y180D01*
X1710Y180D01*
X1710Y178D01*
X1714Y178D01*
X1714Y176D01*
X1716Y176D01*
X1716Y174D01*
X1738Y174D01*
X1738Y176D01*
X1742Y176D01*
X1742Y178D01*
X1744Y178D01*
X1744Y180D01*
X1748Y180D01*
X1748Y182D01*
X1754Y182D01*
X1754Y184D01*
X1760Y184D01*
X1760Y186D01*
X1696Y186D01*
G37*
D02*
G36*
X1796Y186D02*
X1796Y184D01*
X1802Y184D01*
X1802Y182D01*
X1806Y182D01*
X1806Y180D01*
X1810Y180D01*
X1810Y178D01*
X1814Y178D01*
X1814Y176D01*
X1816Y176D01*
X1816Y174D01*
X1820Y174D01*
X1820Y172D01*
X1822Y172D01*
X1822Y170D01*
X1824Y170D01*
X1824Y168D01*
X1826Y168D01*
X1826Y166D01*
X1828Y166D01*
X1828Y164D01*
X1830Y164D01*
X1830Y162D01*
X1832Y162D01*
X1832Y160D01*
X1834Y160D01*
X1834Y158D01*
X1836Y158D01*
X1836Y154D01*
X1838Y154D01*
X1838Y152D01*
X1840Y152D01*
X1840Y148D01*
X1842Y148D01*
X1842Y144D01*
X1844Y144D01*
X1844Y138D01*
X1846Y138D01*
X1846Y128D01*
X1848Y128D01*
X1848Y106D01*
X1846Y106D01*
X1846Y96D01*
X1844Y96D01*
X1844Y90D01*
X1842Y90D01*
X1842Y86D01*
X1840Y86D01*
X1840Y82D01*
X1838Y82D01*
X1838Y80D01*
X1836Y80D01*
X1836Y76D01*
X1834Y76D01*
X1834Y74D01*
X1832Y74D01*
X1832Y72D01*
X1830Y72D01*
X1830Y70D01*
X1828Y70D01*
X1828Y68D01*
X1826Y68D01*
X1826Y66D01*
X1824Y66D01*
X1824Y64D01*
X1822Y64D01*
X1822Y62D01*
X1820Y62D01*
X1820Y60D01*
X1818Y60D01*
X1818Y40D01*
X1938Y40D01*
X1938Y60D01*
X1936Y60D01*
X1936Y62D01*
X1934Y62D01*
X1934Y64D01*
X1932Y64D01*
X1932Y66D01*
X1928Y66D01*
X1928Y68D01*
X1926Y68D01*
X1926Y72D01*
X1924Y72D01*
X1924Y74D01*
X1922Y74D01*
X1922Y76D01*
X1920Y76D01*
X1920Y78D01*
X1918Y78D01*
X1918Y82D01*
X1916Y82D01*
X1916Y86D01*
X1914Y86D01*
X1914Y90D01*
X1912Y90D01*
X1912Y94D01*
X1910Y94D01*
X1910Y102D01*
X1908Y102D01*
X1908Y132D01*
X1910Y132D01*
X1910Y140D01*
X1912Y140D01*
X1912Y144D01*
X1914Y144D01*
X1914Y148D01*
X1916Y148D01*
X1916Y152D01*
X1918Y152D01*
X1918Y156D01*
X1920Y156D01*
X1920Y158D01*
X1922Y158D01*
X1922Y160D01*
X1924Y160D01*
X1924Y162D01*
X1926Y162D01*
X1926Y164D01*
X1928Y164D01*
X1928Y166D01*
X1930Y166D01*
X1930Y168D01*
X1932Y168D01*
X1932Y170D01*
X1934Y170D01*
X1934Y172D01*
X1936Y172D01*
X1936Y174D01*
X1938Y174D01*
X1938Y176D01*
X1942Y176D01*
X1942Y178D01*
X1944Y178D01*
X1944Y180D01*
X1948Y180D01*
X1948Y182D01*
X1954Y182D01*
X1954Y184D01*
X1960Y184D01*
X1960Y186D01*
X1796Y186D01*
G37*
D02*
G36*
X1996Y186D02*
X1996Y184D01*
X2002Y184D01*
X2002Y182D01*
X2006Y182D01*
X2006Y180D01*
X2010Y180D01*
X2010Y178D01*
X2014Y178D01*
X2014Y176D01*
X2016Y176D01*
X2016Y174D01*
X2038Y174D01*
X2038Y176D01*
X2042Y176D01*
X2042Y178D01*
X2044Y178D01*
X2044Y180D01*
X2048Y180D01*
X2048Y182D01*
X2054Y182D01*
X2054Y184D01*
X2060Y184D01*
X2060Y186D01*
X1996Y186D01*
G37*
D02*
G36*
X2096Y186D02*
X2096Y184D01*
X2102Y184D01*
X2102Y182D01*
X2106Y182D01*
X2106Y180D01*
X2110Y180D01*
X2110Y178D01*
X2114Y178D01*
X2114Y176D01*
X2116Y176D01*
X2116Y174D01*
X2138Y174D01*
X2138Y176D01*
X2142Y176D01*
X2142Y178D01*
X2144Y178D01*
X2144Y180D01*
X2148Y180D01*
X2148Y182D01*
X2154Y182D01*
X2154Y184D01*
X2160Y184D01*
X2160Y186D01*
X2096Y186D01*
G37*
D02*
G36*
X2196Y186D02*
X2196Y184D01*
X2202Y184D01*
X2202Y182D01*
X2206Y182D01*
X2206Y180D01*
X2210Y180D01*
X2210Y178D01*
X2214Y178D01*
X2214Y176D01*
X2216Y176D01*
X2216Y174D01*
X2238Y174D01*
X2238Y176D01*
X2242Y176D01*
X2242Y178D01*
X2244Y178D01*
X2244Y180D01*
X2248Y180D01*
X2248Y182D01*
X2254Y182D01*
X2254Y184D01*
X2260Y184D01*
X2260Y186D01*
X2196Y186D01*
G37*
D02*
G36*
X2296Y186D02*
X2296Y184D01*
X2302Y184D01*
X2302Y182D01*
X2306Y182D01*
X2306Y180D01*
X2310Y180D01*
X2310Y178D01*
X2314Y178D01*
X2314Y176D01*
X2316Y176D01*
X2316Y174D01*
X2338Y174D01*
X2338Y176D01*
X2342Y176D01*
X2342Y178D01*
X2344Y178D01*
X2344Y180D01*
X2348Y180D01*
X2348Y182D01*
X2354Y182D01*
X2354Y184D01*
X2360Y184D01*
X2360Y186D01*
X2296Y186D01*
G37*
D02*
G36*
X2396Y186D02*
X2396Y184D01*
X2402Y184D01*
X2402Y182D01*
X2406Y182D01*
X2406Y180D01*
X2410Y180D01*
X2410Y178D01*
X2414Y178D01*
X2414Y176D01*
X2416Y176D01*
X2416Y174D01*
X2438Y174D01*
X2438Y176D01*
X2442Y176D01*
X2442Y178D01*
X2444Y178D01*
X2444Y180D01*
X2448Y180D01*
X2448Y182D01*
X2454Y182D01*
X2454Y184D01*
X2460Y184D01*
X2460Y186D01*
X2396Y186D01*
G37*
D02*
G36*
X2986Y162D02*
X2986Y160D01*
X2984Y160D01*
X2984Y158D01*
X2980Y158D01*
X2980Y156D01*
X2978Y156D01*
X2978Y154D01*
X2974Y154D01*
X2974Y152D01*
X2970Y152D01*
X2970Y150D01*
X2966Y150D01*
X2966Y148D01*
X2960Y148D01*
X2960Y146D01*
X2950Y146D01*
X2950Y144D01*
X3006Y144D01*
X3006Y162D01*
X2986Y162D01*
G37*
D02*
G36*
X2544Y144D02*
X2544Y142D01*
X3668Y142D01*
X3668Y144D01*
X2544Y144D01*
G37*
D02*
G36*
X2544Y144D02*
X2544Y142D01*
X3668Y142D01*
X3668Y144D01*
X2544Y144D01*
G37*
D02*
G36*
X2544Y144D02*
X2544Y142D01*
X3668Y142D01*
X3668Y144D01*
X2544Y144D01*
G37*
D02*
G36*
X2544Y142D02*
X2544Y138D01*
X2546Y138D01*
X2546Y128D01*
X2548Y128D01*
X2548Y106D01*
X2546Y106D01*
X2546Y96D01*
X2544Y96D01*
X2544Y90D01*
X2542Y90D01*
X2542Y86D01*
X2540Y86D01*
X2540Y82D01*
X2538Y82D01*
X2538Y80D01*
X2536Y80D01*
X2536Y76D01*
X2534Y76D01*
X2534Y74D01*
X2532Y74D01*
X2532Y72D01*
X2530Y72D01*
X2530Y70D01*
X2528Y70D01*
X2528Y68D01*
X2526Y68D01*
X2526Y66D01*
X2524Y66D01*
X2524Y64D01*
X2522Y64D01*
X2522Y62D01*
X2520Y62D01*
X2520Y60D01*
X2518Y60D01*
X2518Y40D01*
X3668Y40D01*
X3668Y142D01*
X2544Y142D01*
G37*
D02*
G36*
X44Y2084D02*
X44Y1948D01*
X890Y1948D01*
X890Y1950D01*
X884Y1950D01*
X884Y1952D01*
X878Y1952D01*
X878Y1954D01*
X874Y1954D01*
X874Y1956D01*
X872Y1956D01*
X872Y1958D01*
X868Y1958D01*
X868Y1960D01*
X866Y1960D01*
X866Y1962D01*
X864Y1962D01*
X864Y1964D01*
X862Y1964D01*
X862Y1966D01*
X858Y1966D01*
X858Y1968D01*
X856Y1968D01*
X856Y1972D01*
X854Y1972D01*
X854Y1974D01*
X852Y1974D01*
X852Y1976D01*
X850Y1976D01*
X850Y1978D01*
X848Y1978D01*
X848Y1982D01*
X846Y1982D01*
X846Y1986D01*
X844Y1986D01*
X844Y1990D01*
X842Y1990D01*
X842Y1994D01*
X840Y1994D01*
X840Y2002D01*
X838Y2002D01*
X838Y2032D01*
X840Y2032D01*
X840Y2040D01*
X842Y2040D01*
X842Y2044D01*
X844Y2044D01*
X844Y2048D01*
X846Y2048D01*
X846Y2052D01*
X848Y2052D01*
X848Y2056D01*
X850Y2056D01*
X850Y2058D01*
X852Y2058D01*
X852Y2060D01*
X854Y2060D01*
X854Y2062D01*
X856Y2062D01*
X856Y2064D01*
X858Y2064D01*
X858Y2084D01*
X44Y2084D01*
G37*
D02*
G36*
X948Y1960D02*
X948Y1958D01*
X944Y1958D01*
X944Y1956D01*
X940Y1956D01*
X940Y1954D01*
X938Y1954D01*
X938Y1952D01*
X932Y1952D01*
X932Y1950D01*
X926Y1950D01*
X926Y1948D01*
X990Y1948D01*
X990Y1950D01*
X984Y1950D01*
X984Y1952D01*
X978Y1952D01*
X978Y1954D01*
X974Y1954D01*
X974Y1956D01*
X972Y1956D01*
X972Y1958D01*
X968Y1958D01*
X968Y1960D01*
X948Y1960D01*
G37*
D02*
G36*
X1048Y1960D02*
X1048Y1958D01*
X1044Y1958D01*
X1044Y1956D01*
X1040Y1956D01*
X1040Y1954D01*
X1038Y1954D01*
X1038Y1952D01*
X1032Y1952D01*
X1032Y1950D01*
X1026Y1950D01*
X1026Y1948D01*
X1090Y1948D01*
X1090Y1950D01*
X1084Y1950D01*
X1084Y1952D01*
X1078Y1952D01*
X1078Y1954D01*
X1074Y1954D01*
X1074Y1956D01*
X1072Y1956D01*
X1072Y1958D01*
X1068Y1958D01*
X1068Y1960D01*
X1048Y1960D01*
G37*
D02*
G36*
X44Y1948D02*
X44Y1946D01*
X1094Y1946D01*
X1094Y1948D01*
X44Y1948D01*
G37*
D02*
G36*
X44Y1948D02*
X44Y1946D01*
X1094Y1946D01*
X1094Y1948D01*
X44Y1948D01*
G37*
D02*
G36*
X44Y1948D02*
X44Y1946D01*
X1094Y1946D01*
X1094Y1948D01*
X44Y1948D01*
G37*
D02*
G36*
X44Y1946D02*
X44Y1886D01*
X296Y1886D01*
X296Y1884D01*
X302Y1884D01*
X302Y1882D01*
X306Y1882D01*
X306Y1880D01*
X310Y1880D01*
X310Y1878D01*
X314Y1878D01*
X314Y1876D01*
X316Y1876D01*
X316Y1874D01*
X320Y1874D01*
X320Y1872D01*
X322Y1872D01*
X322Y1870D01*
X324Y1870D01*
X324Y1868D01*
X326Y1868D01*
X326Y1866D01*
X328Y1866D01*
X328Y1864D01*
X330Y1864D01*
X330Y1862D01*
X332Y1862D01*
X332Y1860D01*
X396Y1860D01*
X396Y1858D01*
X402Y1858D01*
X402Y1856D01*
X404Y1856D01*
X404Y1854D01*
X408Y1854D01*
X408Y1852D01*
X410Y1852D01*
X410Y1850D01*
X412Y1850D01*
X412Y1848D01*
X414Y1848D01*
X414Y1846D01*
X416Y1846D01*
X416Y1842D01*
X418Y1842D01*
X418Y1838D01*
X420Y1838D01*
X420Y1832D01*
X422Y1832D01*
X422Y1786D01*
X996Y1786D01*
X996Y1784D01*
X1002Y1784D01*
X1002Y1782D01*
X1006Y1782D01*
X1006Y1780D01*
X1010Y1780D01*
X1010Y1778D01*
X1014Y1778D01*
X1014Y1776D01*
X1034Y1776D01*
X1034Y1790D01*
X1032Y1790D01*
X1032Y1792D01*
X1030Y1792D01*
X1030Y1796D01*
X1028Y1796D01*
X1028Y1802D01*
X1026Y1802D01*
X1026Y1832D01*
X1028Y1832D01*
X1028Y1838D01*
X1030Y1838D01*
X1030Y1842D01*
X1032Y1842D01*
X1032Y1844D01*
X1034Y1844D01*
X1034Y1848D01*
X1036Y1848D01*
X1036Y1850D01*
X1038Y1850D01*
X1038Y1852D01*
X1040Y1852D01*
X1040Y1854D01*
X1042Y1854D01*
X1042Y1856D01*
X1044Y1856D01*
X1044Y1858D01*
X1046Y1858D01*
X1046Y1860D01*
X1050Y1860D01*
X1050Y1862D01*
X1052Y1862D01*
X1052Y1864D01*
X1054Y1864D01*
X1054Y1868D01*
X1056Y1868D01*
X1056Y1870D01*
X1058Y1870D01*
X1058Y1874D01*
X1060Y1874D01*
X1060Y1876D01*
X1062Y1876D01*
X1062Y1880D01*
X1064Y1880D01*
X1064Y1882D01*
X1066Y1882D01*
X1066Y1886D01*
X1068Y1886D01*
X1068Y1890D01*
X1070Y1890D01*
X1070Y1892D01*
X1072Y1892D01*
X1072Y1896D01*
X1074Y1896D01*
X1074Y1898D01*
X1076Y1898D01*
X1076Y1902D01*
X1078Y1902D01*
X1078Y1904D01*
X1080Y1904D01*
X1080Y1908D01*
X1082Y1908D01*
X1082Y1910D01*
X1084Y1910D01*
X1084Y1914D01*
X1086Y1914D01*
X1086Y1916D01*
X1088Y1916D01*
X1088Y1920D01*
X1090Y1920D01*
X1090Y1922D01*
X1092Y1922D01*
X1092Y1926D01*
X1094Y1926D01*
X1094Y1946D01*
X44Y1946D01*
G37*
D02*
G36*
X44Y1886D02*
X44Y1876D01*
X64Y1876D01*
X64Y1878D01*
X68Y1878D01*
X68Y1880D01*
X72Y1880D01*
X72Y1882D01*
X76Y1882D01*
X76Y1884D01*
X82Y1884D01*
X82Y1886D01*
X44Y1886D01*
G37*
D02*
G36*
X118Y1886D02*
X118Y1884D01*
X124Y1884D01*
X124Y1882D01*
X130Y1882D01*
X130Y1880D01*
X134Y1880D01*
X134Y1878D01*
X136Y1878D01*
X136Y1876D01*
X140Y1876D01*
X140Y1874D01*
X142Y1874D01*
X142Y1872D01*
X144Y1872D01*
X144Y1870D01*
X148Y1870D01*
X148Y1868D01*
X150Y1868D01*
X150Y1866D01*
X152Y1866D01*
X152Y1864D01*
X154Y1864D01*
X154Y1860D01*
X156Y1860D01*
X156Y1858D01*
X158Y1858D01*
X158Y1856D01*
X160Y1856D01*
X160Y1852D01*
X162Y1852D01*
X162Y1848D01*
X164Y1848D01*
X164Y1846D01*
X166Y1846D01*
X166Y1840D01*
X168Y1840D01*
X168Y1834D01*
X170Y1834D01*
X170Y1800D01*
X168Y1800D01*
X168Y1794D01*
X166Y1794D01*
X166Y1788D01*
X164Y1788D01*
X164Y1784D01*
X162Y1784D01*
X162Y1782D01*
X160Y1782D01*
X160Y1778D01*
X158Y1778D01*
X158Y1776D01*
X156Y1776D01*
X156Y1774D01*
X154Y1774D01*
X154Y1770D01*
X152Y1770D01*
X152Y1768D01*
X150Y1768D01*
X150Y1766D01*
X148Y1766D01*
X148Y1764D01*
X146Y1764D01*
X146Y1762D01*
X142Y1762D01*
X142Y1760D01*
X140Y1760D01*
X140Y1758D01*
X136Y1758D01*
X136Y1756D01*
X134Y1756D01*
X134Y1754D01*
X130Y1754D01*
X130Y1752D01*
X126Y1752D01*
X126Y1750D01*
X120Y1750D01*
X120Y1748D01*
X260Y1748D01*
X260Y1750D01*
X254Y1750D01*
X254Y1752D01*
X248Y1752D01*
X248Y1754D01*
X244Y1754D01*
X244Y1756D01*
X242Y1756D01*
X242Y1758D01*
X238Y1758D01*
X238Y1760D01*
X236Y1760D01*
X236Y1762D01*
X234Y1762D01*
X234Y1764D01*
X232Y1764D01*
X232Y1766D01*
X228Y1766D01*
X228Y1768D01*
X226Y1768D01*
X226Y1772D01*
X224Y1772D01*
X224Y1774D01*
X222Y1774D01*
X222Y1776D01*
X220Y1776D01*
X220Y1778D01*
X218Y1778D01*
X218Y1782D01*
X216Y1782D01*
X216Y1786D01*
X214Y1786D01*
X214Y1790D01*
X212Y1790D01*
X212Y1794D01*
X210Y1794D01*
X210Y1802D01*
X208Y1802D01*
X208Y1832D01*
X210Y1832D01*
X210Y1840D01*
X212Y1840D01*
X212Y1844D01*
X214Y1844D01*
X214Y1848D01*
X216Y1848D01*
X216Y1852D01*
X218Y1852D01*
X218Y1854D01*
X220Y1854D01*
X220Y1858D01*
X222Y1858D01*
X222Y1860D01*
X224Y1860D01*
X224Y1862D01*
X226Y1862D01*
X226Y1864D01*
X228Y1864D01*
X228Y1866D01*
X230Y1866D01*
X230Y1868D01*
X232Y1868D01*
X232Y1870D01*
X234Y1870D01*
X234Y1872D01*
X236Y1872D01*
X236Y1874D01*
X238Y1874D01*
X238Y1876D01*
X242Y1876D01*
X242Y1878D01*
X246Y1878D01*
X246Y1880D01*
X248Y1880D01*
X248Y1882D01*
X254Y1882D01*
X254Y1884D01*
X260Y1884D01*
X260Y1886D01*
X118Y1886D01*
G37*
D02*
G36*
X422Y1786D02*
X422Y1668D01*
X594Y1668D01*
X594Y1666D01*
X600Y1666D01*
X600Y1664D01*
X604Y1664D01*
X604Y1662D01*
X606Y1662D01*
X606Y1660D01*
X610Y1660D01*
X610Y1658D01*
X612Y1658D01*
X612Y1656D01*
X614Y1656D01*
X614Y1654D01*
X616Y1654D01*
X616Y1652D01*
X618Y1652D01*
X618Y1650D01*
X620Y1650D01*
X620Y1646D01*
X622Y1646D01*
X622Y1644D01*
X624Y1644D01*
X624Y1640D01*
X626Y1640D01*
X626Y1636D01*
X628Y1636D01*
X628Y1630D01*
X630Y1630D01*
X630Y1604D01*
X628Y1604D01*
X628Y1598D01*
X626Y1598D01*
X626Y1594D01*
X624Y1594D01*
X624Y1590D01*
X622Y1590D01*
X622Y1588D01*
X620Y1588D01*
X620Y1584D01*
X618Y1584D01*
X618Y1582D01*
X616Y1582D01*
X616Y1580D01*
X614Y1580D01*
X614Y1578D01*
X612Y1578D01*
X612Y1576D01*
X610Y1576D01*
X610Y1574D01*
X606Y1574D01*
X606Y1572D01*
X604Y1572D01*
X604Y1570D01*
X600Y1570D01*
X600Y1568D01*
X594Y1568D01*
X594Y1566D01*
X822Y1566D01*
X822Y1648D01*
X708Y1648D01*
X708Y1786D01*
X422Y1786D01*
G37*
D02*
G36*
X896Y1786D02*
X896Y1784D01*
X902Y1784D01*
X902Y1782D01*
X906Y1782D01*
X906Y1780D01*
X910Y1780D01*
X910Y1778D01*
X914Y1778D01*
X914Y1776D01*
X916Y1776D01*
X916Y1774D01*
X938Y1774D01*
X938Y1776D01*
X942Y1776D01*
X942Y1778D01*
X944Y1778D01*
X944Y1780D01*
X948Y1780D01*
X948Y1782D01*
X954Y1782D01*
X954Y1784D01*
X960Y1784D01*
X960Y1786D01*
X896Y1786D01*
G37*
D02*
G36*
X44Y1758D02*
X44Y1748D01*
X82Y1748D01*
X82Y1750D01*
X76Y1750D01*
X76Y1752D01*
X72Y1752D01*
X72Y1754D01*
X68Y1754D01*
X68Y1756D01*
X64Y1756D01*
X64Y1758D01*
X44Y1758D01*
G37*
D02*
G36*
X314Y1758D02*
X314Y1756D01*
X310Y1756D01*
X310Y1754D01*
X308Y1754D01*
X308Y1752D01*
X302Y1752D01*
X302Y1750D01*
X296Y1750D01*
X296Y1748D01*
X334Y1748D01*
X334Y1758D01*
X314Y1758D01*
G37*
D02*
G36*
X44Y1748D02*
X44Y1746D01*
X334Y1746D01*
X334Y1748D01*
X44Y1748D01*
G37*
D02*
G36*
X44Y1748D02*
X44Y1746D01*
X334Y1746D01*
X334Y1748D01*
X44Y1748D01*
G37*
D02*
G36*
X44Y1748D02*
X44Y1746D01*
X334Y1746D01*
X334Y1748D01*
X44Y1748D01*
G37*
D02*
G36*
X44Y1746D02*
X44Y1630D01*
X296Y1630D01*
X296Y1628D01*
X302Y1628D01*
X302Y1626D01*
X306Y1626D01*
X306Y1624D01*
X310Y1624D01*
X310Y1622D01*
X314Y1622D01*
X314Y1620D01*
X334Y1620D01*
X334Y1746D01*
X44Y1746D01*
G37*
D02*
G36*
X422Y1668D02*
X422Y1660D01*
X550Y1660D01*
X550Y1662D01*
X552Y1662D01*
X552Y1664D01*
X556Y1664D01*
X556Y1666D01*
X562Y1666D01*
X562Y1668D01*
X422Y1668D01*
G37*
D02*
G36*
X44Y1630D02*
X44Y1620D01*
X64Y1620D01*
X64Y1622D01*
X68Y1622D01*
X68Y1624D01*
X72Y1624D01*
X72Y1626D01*
X76Y1626D01*
X76Y1628D01*
X82Y1628D01*
X82Y1630D01*
X44Y1630D01*
G37*
D02*
G36*
X118Y1630D02*
X118Y1628D01*
X126Y1628D01*
X126Y1626D01*
X130Y1626D01*
X130Y1624D01*
X134Y1624D01*
X134Y1622D01*
X136Y1622D01*
X136Y1620D01*
X140Y1620D01*
X140Y1618D01*
X142Y1618D01*
X142Y1616D01*
X144Y1616D01*
X144Y1614D01*
X148Y1614D01*
X148Y1612D01*
X150Y1612D01*
X150Y1610D01*
X152Y1610D01*
X152Y1608D01*
X154Y1608D01*
X154Y1604D01*
X156Y1604D01*
X156Y1602D01*
X158Y1602D01*
X158Y1600D01*
X160Y1600D01*
X160Y1596D01*
X162Y1596D01*
X162Y1594D01*
X164Y1594D01*
X164Y1590D01*
X166Y1590D01*
X166Y1584D01*
X168Y1584D01*
X168Y1578D01*
X170Y1578D01*
X170Y1544D01*
X168Y1544D01*
X168Y1538D01*
X166Y1538D01*
X166Y1532D01*
X164Y1532D01*
X164Y1528D01*
X162Y1528D01*
X162Y1526D01*
X160Y1526D01*
X160Y1522D01*
X158Y1522D01*
X158Y1520D01*
X156Y1520D01*
X156Y1518D01*
X154Y1518D01*
X154Y1514D01*
X152Y1514D01*
X152Y1512D01*
X150Y1512D01*
X150Y1510D01*
X148Y1510D01*
X148Y1508D01*
X144Y1508D01*
X144Y1506D01*
X142Y1506D01*
X142Y1504D01*
X140Y1504D01*
X140Y1502D01*
X136Y1502D01*
X136Y1500D01*
X134Y1500D01*
X134Y1498D01*
X130Y1498D01*
X130Y1496D01*
X126Y1496D01*
X126Y1494D01*
X118Y1494D01*
X118Y1492D01*
X260Y1492D01*
X260Y1494D01*
X254Y1494D01*
X254Y1496D01*
X248Y1496D01*
X248Y1498D01*
X244Y1498D01*
X244Y1500D01*
X242Y1500D01*
X242Y1502D01*
X238Y1502D01*
X238Y1504D01*
X236Y1504D01*
X236Y1506D01*
X234Y1506D01*
X234Y1508D01*
X232Y1508D01*
X232Y1510D01*
X230Y1510D01*
X230Y1512D01*
X228Y1512D01*
X228Y1514D01*
X226Y1514D01*
X226Y1516D01*
X224Y1516D01*
X224Y1518D01*
X222Y1518D01*
X222Y1520D01*
X220Y1520D01*
X220Y1522D01*
X218Y1522D01*
X218Y1526D01*
X216Y1526D01*
X216Y1530D01*
X214Y1530D01*
X214Y1534D01*
X212Y1534D01*
X212Y1538D01*
X210Y1538D01*
X210Y1546D01*
X208Y1546D01*
X208Y1576D01*
X210Y1576D01*
X210Y1584D01*
X212Y1584D01*
X212Y1588D01*
X214Y1588D01*
X214Y1592D01*
X216Y1592D01*
X216Y1596D01*
X218Y1596D01*
X218Y1600D01*
X220Y1600D01*
X220Y1602D01*
X222Y1602D01*
X222Y1604D01*
X224Y1604D01*
X224Y1606D01*
X226Y1606D01*
X226Y1608D01*
X228Y1608D01*
X228Y1612D01*
X232Y1612D01*
X232Y1614D01*
X234Y1614D01*
X234Y1616D01*
X236Y1616D01*
X236Y1618D01*
X238Y1618D01*
X238Y1620D01*
X242Y1620D01*
X242Y1622D01*
X244Y1622D01*
X244Y1624D01*
X248Y1624D01*
X248Y1626D01*
X254Y1626D01*
X254Y1628D01*
X260Y1628D01*
X260Y1630D01*
X118Y1630D01*
G37*
D02*
G36*
X348Y1574D02*
X348Y1566D01*
X560Y1566D01*
X560Y1568D01*
X556Y1568D01*
X556Y1570D01*
X552Y1570D01*
X552Y1572D01*
X368Y1572D01*
X368Y1574D01*
X348Y1574D01*
G37*
D02*
G36*
X348Y1566D02*
X348Y1564D01*
X822Y1564D01*
X822Y1566D01*
X348Y1566D01*
G37*
D02*
G36*
X348Y1566D02*
X348Y1564D01*
X822Y1564D01*
X822Y1566D01*
X348Y1566D01*
G37*
D02*
G36*
X348Y1564D02*
X348Y1550D01*
X346Y1550D01*
X346Y1540D01*
X344Y1540D01*
X344Y1534D01*
X342Y1534D01*
X342Y1530D01*
X340Y1530D01*
X340Y1526D01*
X338Y1526D01*
X338Y1524D01*
X336Y1524D01*
X336Y1520D01*
X334Y1520D01*
X334Y1518D01*
X332Y1518D01*
X332Y1516D01*
X330Y1516D01*
X330Y1514D01*
X328Y1514D01*
X328Y1512D01*
X326Y1512D01*
X326Y1510D01*
X324Y1510D01*
X324Y1508D01*
X322Y1508D01*
X322Y1506D01*
X320Y1506D01*
X320Y1504D01*
X316Y1504D01*
X316Y1502D01*
X314Y1502D01*
X314Y1500D01*
X310Y1500D01*
X310Y1498D01*
X306Y1498D01*
X306Y1496D01*
X302Y1496D01*
X302Y1494D01*
X296Y1494D01*
X296Y1492D01*
X820Y1492D01*
X820Y1504D01*
X822Y1504D01*
X822Y1564D01*
X348Y1564D01*
G37*
D02*
G36*
X44Y1502D02*
X44Y1492D01*
X82Y1492D01*
X82Y1494D01*
X76Y1494D01*
X76Y1496D01*
X72Y1496D01*
X72Y1498D01*
X68Y1498D01*
X68Y1500D01*
X64Y1500D01*
X64Y1502D01*
X44Y1502D01*
G37*
D02*
G36*
X44Y1492D02*
X44Y1490D01*
X820Y1490D01*
X820Y1492D01*
X44Y1492D01*
G37*
D02*
G36*
X44Y1492D02*
X44Y1490D01*
X820Y1490D01*
X820Y1492D01*
X44Y1492D01*
G37*
D02*
G36*
X44Y1492D02*
X44Y1490D01*
X820Y1490D01*
X820Y1492D01*
X44Y1492D01*
G37*
D02*
G36*
X44Y1490D02*
X44Y1186D01*
X296Y1186D01*
X296Y1184D01*
X302Y1184D01*
X302Y1182D01*
X306Y1182D01*
X306Y1180D01*
X310Y1180D01*
X310Y1178D01*
X314Y1178D01*
X314Y1176D01*
X316Y1176D01*
X316Y1174D01*
X320Y1174D01*
X320Y1172D01*
X322Y1172D01*
X322Y1170D01*
X324Y1170D01*
X324Y1168D01*
X326Y1168D01*
X326Y1166D01*
X328Y1166D01*
X328Y1164D01*
X330Y1164D01*
X330Y1162D01*
X332Y1162D01*
X332Y1160D01*
X334Y1160D01*
X334Y1158D01*
X336Y1158D01*
X336Y1154D01*
X338Y1154D01*
X338Y1152D01*
X340Y1152D01*
X340Y1148D01*
X342Y1148D01*
X342Y1144D01*
X344Y1144D01*
X344Y1138D01*
X346Y1138D01*
X346Y1128D01*
X348Y1128D01*
X348Y1106D01*
X346Y1106D01*
X346Y1096D01*
X344Y1096D01*
X344Y1090D01*
X342Y1090D01*
X342Y1086D01*
X340Y1086D01*
X340Y1082D01*
X338Y1082D01*
X338Y1080D01*
X336Y1080D01*
X336Y1076D01*
X334Y1076D01*
X334Y1074D01*
X332Y1074D01*
X332Y1072D01*
X330Y1072D01*
X330Y1070D01*
X328Y1070D01*
X328Y1068D01*
X326Y1068D01*
X326Y1066D01*
X324Y1066D01*
X324Y1064D01*
X322Y1064D01*
X322Y1062D01*
X320Y1062D01*
X320Y1060D01*
X318Y1060D01*
X318Y1058D01*
X314Y1058D01*
X314Y1056D01*
X310Y1056D01*
X310Y1054D01*
X308Y1054D01*
X308Y1052D01*
X302Y1052D01*
X302Y1050D01*
X296Y1050D01*
X296Y1048D01*
X820Y1048D01*
X820Y1490D01*
X44Y1490D01*
G37*
D02*
G36*
X44Y1186D02*
X44Y1176D01*
X64Y1176D01*
X64Y1178D01*
X68Y1178D01*
X68Y1180D01*
X72Y1180D01*
X72Y1182D01*
X76Y1182D01*
X76Y1184D01*
X82Y1184D01*
X82Y1186D01*
X44Y1186D01*
G37*
D02*
G36*
X118Y1186D02*
X118Y1184D01*
X124Y1184D01*
X124Y1182D01*
X130Y1182D01*
X130Y1180D01*
X134Y1180D01*
X134Y1178D01*
X136Y1178D01*
X136Y1176D01*
X140Y1176D01*
X140Y1174D01*
X142Y1174D01*
X142Y1172D01*
X144Y1172D01*
X144Y1170D01*
X148Y1170D01*
X148Y1168D01*
X150Y1168D01*
X150Y1166D01*
X152Y1166D01*
X152Y1164D01*
X154Y1164D01*
X154Y1160D01*
X156Y1160D01*
X156Y1158D01*
X158Y1158D01*
X158Y1156D01*
X160Y1156D01*
X160Y1152D01*
X162Y1152D01*
X162Y1150D01*
X164Y1150D01*
X164Y1146D01*
X166Y1146D01*
X166Y1140D01*
X168Y1140D01*
X168Y1134D01*
X170Y1134D01*
X170Y1100D01*
X168Y1100D01*
X168Y1094D01*
X166Y1094D01*
X166Y1088D01*
X164Y1088D01*
X164Y1084D01*
X162Y1084D01*
X162Y1082D01*
X160Y1082D01*
X160Y1078D01*
X158Y1078D01*
X158Y1076D01*
X156Y1076D01*
X156Y1074D01*
X154Y1074D01*
X154Y1070D01*
X152Y1070D01*
X152Y1068D01*
X150Y1068D01*
X150Y1066D01*
X148Y1066D01*
X148Y1064D01*
X146Y1064D01*
X146Y1062D01*
X142Y1062D01*
X142Y1060D01*
X140Y1060D01*
X140Y1058D01*
X136Y1058D01*
X136Y1056D01*
X134Y1056D01*
X134Y1054D01*
X130Y1054D01*
X130Y1052D01*
X126Y1052D01*
X126Y1050D01*
X120Y1050D01*
X120Y1048D01*
X260Y1048D01*
X260Y1050D01*
X254Y1050D01*
X254Y1052D01*
X248Y1052D01*
X248Y1054D01*
X244Y1054D01*
X244Y1056D01*
X242Y1056D01*
X242Y1058D01*
X238Y1058D01*
X238Y1060D01*
X236Y1060D01*
X236Y1062D01*
X234Y1062D01*
X234Y1064D01*
X232Y1064D01*
X232Y1066D01*
X228Y1066D01*
X228Y1068D01*
X226Y1068D01*
X226Y1072D01*
X224Y1072D01*
X224Y1074D01*
X222Y1074D01*
X222Y1076D01*
X220Y1076D01*
X220Y1078D01*
X218Y1078D01*
X218Y1082D01*
X216Y1082D01*
X216Y1086D01*
X214Y1086D01*
X214Y1090D01*
X212Y1090D01*
X212Y1094D01*
X210Y1094D01*
X210Y1102D01*
X208Y1102D01*
X208Y1132D01*
X210Y1132D01*
X210Y1140D01*
X212Y1140D01*
X212Y1144D01*
X214Y1144D01*
X214Y1148D01*
X216Y1148D01*
X216Y1152D01*
X218Y1152D01*
X218Y1156D01*
X220Y1156D01*
X220Y1158D01*
X222Y1158D01*
X222Y1160D01*
X224Y1160D01*
X224Y1162D01*
X226Y1162D01*
X226Y1164D01*
X228Y1164D01*
X228Y1166D01*
X230Y1166D01*
X230Y1168D01*
X232Y1168D01*
X232Y1170D01*
X234Y1170D01*
X234Y1172D01*
X236Y1172D01*
X236Y1174D01*
X238Y1174D01*
X238Y1176D01*
X242Y1176D01*
X242Y1178D01*
X244Y1178D01*
X244Y1180D01*
X248Y1180D01*
X248Y1182D01*
X254Y1182D01*
X254Y1184D01*
X260Y1184D01*
X260Y1186D01*
X118Y1186D01*
G37*
D02*
G36*
X44Y1058D02*
X44Y1048D01*
X82Y1048D01*
X82Y1050D01*
X76Y1050D01*
X76Y1052D01*
X72Y1052D01*
X72Y1054D01*
X68Y1054D01*
X68Y1056D01*
X64Y1056D01*
X64Y1058D01*
X44Y1058D01*
G37*
D02*
G36*
X44Y1048D02*
X44Y1046D01*
X820Y1046D01*
X820Y1048D01*
X44Y1048D01*
G37*
D02*
G36*
X44Y1048D02*
X44Y1046D01*
X820Y1046D01*
X820Y1048D01*
X44Y1048D01*
G37*
D02*
G36*
X44Y1048D02*
X44Y1046D01*
X820Y1046D01*
X820Y1048D01*
X44Y1048D01*
G37*
D02*
G36*
X44Y1046D02*
X44Y930D01*
X296Y930D01*
X296Y928D01*
X302Y928D01*
X302Y926D01*
X306Y926D01*
X306Y924D01*
X310Y924D01*
X310Y922D01*
X314Y922D01*
X314Y920D01*
X316Y920D01*
X316Y918D01*
X320Y918D01*
X320Y916D01*
X322Y916D01*
X322Y914D01*
X324Y914D01*
X324Y912D01*
X326Y912D01*
X326Y910D01*
X328Y910D01*
X328Y908D01*
X330Y908D01*
X330Y906D01*
X332Y906D01*
X332Y904D01*
X334Y904D01*
X334Y902D01*
X336Y902D01*
X336Y898D01*
X338Y898D01*
X338Y896D01*
X340Y896D01*
X340Y892D01*
X342Y892D01*
X342Y888D01*
X344Y888D01*
X344Y882D01*
X346Y882D01*
X346Y872D01*
X348Y872D01*
X348Y850D01*
X346Y850D01*
X346Y840D01*
X344Y840D01*
X344Y834D01*
X342Y834D01*
X342Y830D01*
X340Y830D01*
X340Y826D01*
X338Y826D01*
X338Y824D01*
X336Y824D01*
X336Y820D01*
X334Y820D01*
X334Y818D01*
X332Y818D01*
X332Y816D01*
X330Y816D01*
X330Y814D01*
X328Y814D01*
X328Y812D01*
X326Y812D01*
X326Y810D01*
X324Y810D01*
X324Y808D01*
X322Y808D01*
X322Y806D01*
X320Y806D01*
X320Y804D01*
X316Y804D01*
X316Y802D01*
X1040Y802D01*
X1040Y770D01*
X1290Y770D01*
X1290Y768D01*
X1296Y768D01*
X1296Y766D01*
X1300Y766D01*
X1300Y764D01*
X1322Y764D01*
X1322Y962D01*
X860Y962D01*
X860Y964D01*
X852Y964D01*
X852Y966D01*
X848Y966D01*
X848Y968D01*
X844Y968D01*
X844Y970D01*
X840Y970D01*
X840Y972D01*
X838Y972D01*
X838Y974D01*
X836Y974D01*
X836Y976D01*
X834Y976D01*
X834Y978D01*
X832Y978D01*
X832Y980D01*
X830Y980D01*
X830Y982D01*
X828Y982D01*
X828Y984D01*
X826Y984D01*
X826Y988D01*
X824Y988D01*
X824Y992D01*
X822Y992D01*
X822Y998D01*
X820Y998D01*
X820Y1046D01*
X44Y1046D01*
G37*
D02*
G36*
X44Y930D02*
X44Y920D01*
X64Y920D01*
X64Y922D01*
X68Y922D01*
X68Y924D01*
X72Y924D01*
X72Y926D01*
X76Y926D01*
X76Y928D01*
X82Y928D01*
X82Y930D01*
X44Y930D01*
G37*
D02*
G36*
X118Y930D02*
X118Y928D01*
X126Y928D01*
X126Y926D01*
X130Y926D01*
X130Y924D01*
X134Y924D01*
X134Y922D01*
X136Y922D01*
X136Y920D01*
X140Y920D01*
X140Y918D01*
X142Y918D01*
X142Y916D01*
X144Y916D01*
X144Y914D01*
X148Y914D01*
X148Y912D01*
X150Y912D01*
X150Y910D01*
X152Y910D01*
X152Y908D01*
X154Y908D01*
X154Y904D01*
X156Y904D01*
X156Y902D01*
X158Y902D01*
X158Y900D01*
X160Y900D01*
X160Y896D01*
X162Y896D01*
X162Y894D01*
X164Y894D01*
X164Y890D01*
X166Y890D01*
X166Y884D01*
X168Y884D01*
X168Y878D01*
X170Y878D01*
X170Y844D01*
X168Y844D01*
X168Y838D01*
X166Y838D01*
X166Y832D01*
X164Y832D01*
X164Y828D01*
X162Y828D01*
X162Y826D01*
X160Y826D01*
X160Y822D01*
X158Y822D01*
X158Y820D01*
X156Y820D01*
X156Y818D01*
X154Y818D01*
X154Y814D01*
X152Y814D01*
X152Y812D01*
X150Y812D01*
X150Y810D01*
X148Y810D01*
X148Y808D01*
X144Y808D01*
X144Y806D01*
X142Y806D01*
X142Y804D01*
X140Y804D01*
X140Y802D01*
X136Y802D01*
X136Y800D01*
X134Y800D01*
X134Y798D01*
X130Y798D01*
X130Y796D01*
X126Y796D01*
X126Y794D01*
X118Y794D01*
X118Y792D01*
X260Y792D01*
X260Y794D01*
X254Y794D01*
X254Y796D01*
X248Y796D01*
X248Y798D01*
X244Y798D01*
X244Y800D01*
X242Y800D01*
X242Y802D01*
X238Y802D01*
X238Y804D01*
X236Y804D01*
X236Y806D01*
X234Y806D01*
X234Y808D01*
X232Y808D01*
X232Y810D01*
X230Y810D01*
X230Y812D01*
X228Y812D01*
X228Y814D01*
X226Y814D01*
X226Y816D01*
X224Y816D01*
X224Y818D01*
X222Y818D01*
X222Y820D01*
X220Y820D01*
X220Y822D01*
X218Y822D01*
X218Y826D01*
X216Y826D01*
X216Y830D01*
X214Y830D01*
X214Y834D01*
X212Y834D01*
X212Y838D01*
X210Y838D01*
X210Y846D01*
X208Y846D01*
X208Y876D01*
X210Y876D01*
X210Y884D01*
X212Y884D01*
X212Y888D01*
X214Y888D01*
X214Y892D01*
X216Y892D01*
X216Y896D01*
X218Y896D01*
X218Y900D01*
X220Y900D01*
X220Y902D01*
X222Y902D01*
X222Y904D01*
X224Y904D01*
X224Y906D01*
X226Y906D01*
X226Y908D01*
X228Y908D01*
X228Y912D01*
X232Y912D01*
X232Y914D01*
X234Y914D01*
X234Y916D01*
X236Y916D01*
X236Y918D01*
X238Y918D01*
X238Y920D01*
X242Y920D01*
X242Y922D01*
X244Y922D01*
X244Y924D01*
X248Y924D01*
X248Y926D01*
X254Y926D01*
X254Y928D01*
X260Y928D01*
X260Y930D01*
X118Y930D01*
G37*
D02*
G36*
X44Y802D02*
X44Y792D01*
X82Y792D01*
X82Y794D01*
X76Y794D01*
X76Y796D01*
X72Y796D01*
X72Y798D01*
X68Y798D01*
X68Y800D01*
X64Y800D01*
X64Y802D01*
X44Y802D01*
G37*
D02*
G36*
X314Y802D02*
X314Y800D01*
X310Y800D01*
X310Y798D01*
X306Y798D01*
X306Y796D01*
X302Y796D01*
X302Y794D01*
X296Y794D01*
X296Y792D01*
X716Y792D01*
X716Y802D01*
X314Y802D01*
G37*
D02*
G36*
X44Y792D02*
X44Y790D01*
X716Y790D01*
X716Y792D01*
X44Y792D01*
G37*
D02*
G36*
X44Y792D02*
X44Y790D01*
X716Y790D01*
X716Y792D01*
X44Y792D01*
G37*
D02*
G36*
X44Y792D02*
X44Y790D01*
X716Y790D01*
X716Y792D01*
X44Y792D01*
G37*
D02*
G36*
X44Y790D02*
X44Y586D01*
X296Y586D01*
X296Y584D01*
X302Y584D01*
X302Y582D01*
X306Y582D01*
X306Y580D01*
X310Y580D01*
X310Y578D01*
X314Y578D01*
X314Y576D01*
X316Y576D01*
X316Y574D01*
X320Y574D01*
X320Y572D01*
X322Y572D01*
X322Y570D01*
X324Y570D01*
X324Y568D01*
X326Y568D01*
X326Y566D01*
X328Y566D01*
X328Y564D01*
X330Y564D01*
X330Y562D01*
X332Y562D01*
X332Y560D01*
X334Y560D01*
X334Y558D01*
X336Y558D01*
X336Y554D01*
X338Y554D01*
X338Y552D01*
X340Y552D01*
X340Y548D01*
X342Y548D01*
X342Y544D01*
X344Y544D01*
X344Y538D01*
X346Y538D01*
X346Y528D01*
X348Y528D01*
X348Y506D01*
X346Y506D01*
X346Y496D01*
X344Y496D01*
X344Y490D01*
X342Y490D01*
X342Y486D01*
X340Y486D01*
X340Y482D01*
X338Y482D01*
X338Y480D01*
X336Y480D01*
X336Y476D01*
X334Y476D01*
X334Y474D01*
X332Y474D01*
X332Y472D01*
X330Y472D01*
X330Y470D01*
X328Y470D01*
X328Y468D01*
X326Y468D01*
X326Y466D01*
X324Y466D01*
X324Y464D01*
X322Y464D01*
X322Y462D01*
X320Y462D01*
X320Y460D01*
X318Y460D01*
X318Y458D01*
X314Y458D01*
X314Y456D01*
X310Y456D01*
X310Y454D01*
X308Y454D01*
X308Y452D01*
X302Y452D01*
X302Y450D01*
X296Y450D01*
X296Y448D01*
X716Y448D01*
X716Y790D01*
X44Y790D01*
G37*
D02*
G36*
X1040Y770D02*
X1040Y432D01*
X1222Y432D01*
X1222Y706D01*
X1224Y706D01*
X1224Y712D01*
X1226Y712D01*
X1226Y732D01*
X1228Y732D01*
X1228Y738D01*
X1230Y738D01*
X1230Y742D01*
X1232Y742D01*
X1232Y746D01*
X1234Y746D01*
X1234Y748D01*
X1236Y748D01*
X1236Y750D01*
X1238Y750D01*
X1238Y754D01*
X1240Y754D01*
X1240Y756D01*
X1242Y756D01*
X1242Y758D01*
X1246Y758D01*
X1246Y760D01*
X1248Y760D01*
X1248Y762D01*
X1250Y762D01*
X1250Y764D01*
X1254Y764D01*
X1254Y766D01*
X1258Y766D01*
X1258Y768D01*
X1266Y768D01*
X1266Y770D01*
X1040Y770D01*
G37*
D02*
G36*
X44Y586D02*
X44Y576D01*
X64Y576D01*
X64Y578D01*
X68Y578D01*
X68Y580D01*
X72Y580D01*
X72Y582D01*
X76Y582D01*
X76Y584D01*
X82Y584D01*
X82Y586D01*
X44Y586D01*
G37*
D02*
G36*
X118Y586D02*
X118Y584D01*
X124Y584D01*
X124Y582D01*
X130Y582D01*
X130Y580D01*
X134Y580D01*
X134Y578D01*
X136Y578D01*
X136Y576D01*
X140Y576D01*
X140Y574D01*
X142Y574D01*
X142Y572D01*
X144Y572D01*
X144Y570D01*
X148Y570D01*
X148Y568D01*
X150Y568D01*
X150Y566D01*
X152Y566D01*
X152Y564D01*
X154Y564D01*
X154Y560D01*
X156Y560D01*
X156Y558D01*
X158Y558D01*
X158Y556D01*
X160Y556D01*
X160Y552D01*
X162Y552D01*
X162Y550D01*
X164Y550D01*
X164Y546D01*
X166Y546D01*
X166Y540D01*
X168Y540D01*
X168Y534D01*
X170Y534D01*
X170Y500D01*
X168Y500D01*
X168Y494D01*
X166Y494D01*
X166Y488D01*
X164Y488D01*
X164Y484D01*
X162Y484D01*
X162Y482D01*
X160Y482D01*
X160Y478D01*
X158Y478D01*
X158Y476D01*
X156Y476D01*
X156Y474D01*
X154Y474D01*
X154Y470D01*
X152Y470D01*
X152Y468D01*
X150Y468D01*
X150Y466D01*
X148Y466D01*
X148Y464D01*
X146Y464D01*
X146Y462D01*
X142Y462D01*
X142Y460D01*
X140Y460D01*
X140Y458D01*
X136Y458D01*
X136Y456D01*
X134Y456D01*
X134Y454D01*
X130Y454D01*
X130Y452D01*
X126Y452D01*
X126Y450D01*
X120Y450D01*
X120Y448D01*
X260Y448D01*
X260Y450D01*
X254Y450D01*
X254Y452D01*
X248Y452D01*
X248Y454D01*
X244Y454D01*
X244Y456D01*
X242Y456D01*
X242Y458D01*
X238Y458D01*
X238Y460D01*
X236Y460D01*
X236Y462D01*
X234Y462D01*
X234Y464D01*
X232Y464D01*
X232Y466D01*
X228Y466D01*
X228Y468D01*
X226Y468D01*
X226Y472D01*
X224Y472D01*
X224Y474D01*
X222Y474D01*
X222Y476D01*
X220Y476D01*
X220Y478D01*
X218Y478D01*
X218Y482D01*
X216Y482D01*
X216Y486D01*
X214Y486D01*
X214Y490D01*
X212Y490D01*
X212Y494D01*
X210Y494D01*
X210Y502D01*
X208Y502D01*
X208Y532D01*
X210Y532D01*
X210Y540D01*
X212Y540D01*
X212Y544D01*
X214Y544D01*
X214Y548D01*
X216Y548D01*
X216Y552D01*
X218Y552D01*
X218Y556D01*
X220Y556D01*
X220Y558D01*
X222Y558D01*
X222Y560D01*
X224Y560D01*
X224Y562D01*
X226Y562D01*
X226Y564D01*
X228Y564D01*
X228Y566D01*
X230Y566D01*
X230Y568D01*
X232Y568D01*
X232Y570D01*
X234Y570D01*
X234Y572D01*
X236Y572D01*
X236Y574D01*
X238Y574D01*
X238Y576D01*
X242Y576D01*
X242Y578D01*
X244Y578D01*
X244Y580D01*
X248Y580D01*
X248Y582D01*
X254Y582D01*
X254Y584D01*
X260Y584D01*
X260Y586D01*
X118Y586D01*
G37*
D02*
G36*
X44Y458D02*
X44Y448D01*
X82Y448D01*
X82Y450D01*
X76Y450D01*
X76Y452D01*
X72Y452D01*
X72Y454D01*
X68Y454D01*
X68Y456D01*
X64Y456D01*
X64Y458D01*
X44Y458D01*
G37*
D02*
G36*
X44Y448D02*
X44Y446D01*
X716Y446D01*
X716Y448D01*
X44Y448D01*
G37*
D02*
G36*
X44Y448D02*
X44Y446D01*
X716Y446D01*
X716Y448D01*
X44Y448D01*
G37*
D02*
G36*
X44Y448D02*
X44Y446D01*
X716Y446D01*
X716Y448D01*
X44Y448D01*
G37*
D02*
G36*
X44Y446D02*
X44Y432D01*
X716Y432D01*
X716Y446D01*
X44Y446D01*
G37*
D02*
G36*
X44Y432D02*
X44Y430D01*
X1222Y430D01*
X1222Y432D01*
X44Y432D01*
G37*
D02*
G36*
X44Y432D02*
X44Y430D01*
X1222Y430D01*
X1222Y432D01*
X44Y432D01*
G37*
D02*
G36*
X44Y430D02*
X44Y390D01*
X1050Y390D01*
X1050Y266D01*
X1262Y266D01*
X1262Y268D01*
X1256Y268D01*
X1256Y270D01*
X1252Y270D01*
X1252Y272D01*
X1250Y272D01*
X1250Y274D01*
X1246Y274D01*
X1246Y276D01*
X1244Y276D01*
X1244Y278D01*
X1242Y278D01*
X1242Y280D01*
X1240Y280D01*
X1240Y282D01*
X1238Y282D01*
X1238Y284D01*
X1236Y284D01*
X1236Y286D01*
X1234Y286D01*
X1234Y290D01*
X1232Y290D01*
X1232Y292D01*
X1230Y292D01*
X1230Y296D01*
X1228Y296D01*
X1228Y302D01*
X1226Y302D01*
X1226Y322D01*
X1224Y322D01*
X1224Y328D01*
X1222Y328D01*
X1222Y430D01*
X44Y430D01*
G37*
D02*
G36*
X44Y390D02*
X44Y386D01*
X548Y386D01*
X548Y248D01*
X546Y248D01*
X546Y244D01*
X760Y244D01*
X760Y246D01*
X754Y246D01*
X754Y248D01*
X748Y248D01*
X748Y250D01*
X744Y250D01*
X744Y252D01*
X742Y252D01*
X742Y254D01*
X738Y254D01*
X738Y256D01*
X736Y256D01*
X736Y258D01*
X732Y258D01*
X732Y260D01*
X730Y260D01*
X730Y262D01*
X728Y262D01*
X728Y264D01*
X726Y264D01*
X726Y266D01*
X724Y266D01*
X724Y268D01*
X722Y268D01*
X722Y270D01*
X720Y270D01*
X720Y272D01*
X718Y272D01*
X718Y276D01*
X716Y276D01*
X716Y278D01*
X714Y278D01*
X714Y282D01*
X712Y282D01*
X712Y286D01*
X710Y286D01*
X710Y290D01*
X708Y290D01*
X708Y296D01*
X706Y296D01*
X706Y306D01*
X704Y306D01*
X704Y328D01*
X706Y328D01*
X706Y338D01*
X708Y338D01*
X708Y344D01*
X710Y344D01*
X710Y348D01*
X712Y348D01*
X712Y352D01*
X714Y352D01*
X714Y356D01*
X716Y356D01*
X716Y358D01*
X718Y358D01*
X718Y360D01*
X720Y360D01*
X720Y364D01*
X722Y364D01*
X722Y366D01*
X724Y366D01*
X724Y368D01*
X726Y368D01*
X726Y370D01*
X728Y370D01*
X728Y372D01*
X730Y372D01*
X730Y374D01*
X732Y374D01*
X732Y376D01*
X736Y376D01*
X736Y378D01*
X738Y378D01*
X738Y380D01*
X742Y380D01*
X742Y382D01*
X746Y382D01*
X746Y384D01*
X750Y384D01*
X750Y386D01*
X754Y386D01*
X754Y388D01*
X762Y388D01*
X762Y390D01*
X44Y390D01*
G37*
D02*
G36*
X794Y390D02*
X794Y388D01*
X802Y388D01*
X802Y386D01*
X806Y386D01*
X806Y384D01*
X810Y384D01*
X810Y382D01*
X814Y382D01*
X814Y380D01*
X818Y380D01*
X818Y378D01*
X838Y378D01*
X838Y380D01*
X842Y380D01*
X842Y382D01*
X846Y382D01*
X846Y384D01*
X850Y384D01*
X850Y386D01*
X854Y386D01*
X854Y388D01*
X862Y388D01*
X862Y390D01*
X794Y390D01*
G37*
D02*
G36*
X44Y386D02*
X44Y330D01*
X296Y330D01*
X296Y328D01*
X302Y328D01*
X302Y326D01*
X306Y326D01*
X306Y324D01*
X310Y324D01*
X310Y322D01*
X314Y322D01*
X314Y320D01*
X316Y320D01*
X316Y318D01*
X320Y318D01*
X320Y316D01*
X322Y316D01*
X322Y314D01*
X324Y314D01*
X324Y312D01*
X326Y312D01*
X326Y310D01*
X328Y310D01*
X328Y308D01*
X330Y308D01*
X330Y306D01*
X332Y306D01*
X332Y304D01*
X334Y304D01*
X334Y302D01*
X336Y302D01*
X336Y298D01*
X338Y298D01*
X338Y296D01*
X340Y296D01*
X340Y292D01*
X342Y292D01*
X342Y288D01*
X344Y288D01*
X344Y282D01*
X346Y282D01*
X346Y272D01*
X348Y272D01*
X348Y250D01*
X346Y250D01*
X346Y240D01*
X344Y240D01*
X344Y234D01*
X342Y234D01*
X342Y230D01*
X340Y230D01*
X340Y226D01*
X338Y226D01*
X338Y224D01*
X336Y224D01*
X336Y220D01*
X334Y220D01*
X334Y218D01*
X332Y218D01*
X332Y216D01*
X330Y216D01*
X330Y214D01*
X328Y214D01*
X328Y212D01*
X326Y212D01*
X326Y210D01*
X324Y210D01*
X324Y208D01*
X322Y208D01*
X322Y206D01*
X320Y206D01*
X320Y204D01*
X316Y204D01*
X316Y202D01*
X314Y202D01*
X314Y200D01*
X310Y200D01*
X310Y198D01*
X306Y198D01*
X306Y196D01*
X302Y196D01*
X302Y194D01*
X296Y194D01*
X296Y192D01*
X412Y192D01*
X412Y194D01*
X410Y194D01*
X410Y202D01*
X408Y202D01*
X408Y386D01*
X44Y386D01*
G37*
D02*
G36*
X44Y330D02*
X44Y320D01*
X64Y320D01*
X64Y322D01*
X68Y322D01*
X68Y324D01*
X72Y324D01*
X72Y326D01*
X76Y326D01*
X76Y328D01*
X82Y328D01*
X82Y330D01*
X44Y330D01*
G37*
D02*
G36*
X118Y330D02*
X118Y328D01*
X126Y328D01*
X126Y326D01*
X130Y326D01*
X130Y324D01*
X134Y324D01*
X134Y322D01*
X136Y322D01*
X136Y320D01*
X140Y320D01*
X140Y318D01*
X142Y318D01*
X142Y316D01*
X144Y316D01*
X144Y314D01*
X148Y314D01*
X148Y312D01*
X150Y312D01*
X150Y310D01*
X152Y310D01*
X152Y308D01*
X154Y308D01*
X154Y304D01*
X156Y304D01*
X156Y302D01*
X158Y302D01*
X158Y300D01*
X160Y300D01*
X160Y296D01*
X162Y296D01*
X162Y294D01*
X164Y294D01*
X164Y290D01*
X166Y290D01*
X166Y284D01*
X168Y284D01*
X168Y278D01*
X170Y278D01*
X170Y244D01*
X168Y244D01*
X168Y238D01*
X166Y238D01*
X166Y232D01*
X164Y232D01*
X164Y228D01*
X162Y228D01*
X162Y226D01*
X160Y226D01*
X160Y222D01*
X158Y222D01*
X158Y220D01*
X156Y220D01*
X156Y218D01*
X154Y218D01*
X154Y214D01*
X152Y214D01*
X152Y212D01*
X150Y212D01*
X150Y210D01*
X148Y210D01*
X148Y208D01*
X144Y208D01*
X144Y206D01*
X142Y206D01*
X142Y204D01*
X140Y204D01*
X140Y202D01*
X136Y202D01*
X136Y200D01*
X134Y200D01*
X134Y198D01*
X130Y198D01*
X130Y196D01*
X126Y196D01*
X126Y194D01*
X118Y194D01*
X118Y192D01*
X260Y192D01*
X260Y194D01*
X254Y194D01*
X254Y196D01*
X248Y196D01*
X248Y198D01*
X244Y198D01*
X244Y200D01*
X242Y200D01*
X242Y202D01*
X238Y202D01*
X238Y204D01*
X236Y204D01*
X236Y206D01*
X234Y206D01*
X234Y208D01*
X232Y208D01*
X232Y210D01*
X230Y210D01*
X230Y212D01*
X228Y212D01*
X228Y214D01*
X226Y214D01*
X226Y216D01*
X224Y216D01*
X224Y218D01*
X222Y218D01*
X222Y220D01*
X220Y220D01*
X220Y222D01*
X218Y222D01*
X218Y226D01*
X216Y226D01*
X216Y230D01*
X214Y230D01*
X214Y234D01*
X212Y234D01*
X212Y238D01*
X210Y238D01*
X210Y246D01*
X208Y246D01*
X208Y276D01*
X210Y276D01*
X210Y284D01*
X212Y284D01*
X212Y288D01*
X214Y288D01*
X214Y292D01*
X216Y292D01*
X216Y296D01*
X218Y296D01*
X218Y300D01*
X220Y300D01*
X220Y302D01*
X222Y302D01*
X222Y304D01*
X224Y304D01*
X224Y306D01*
X226Y306D01*
X226Y308D01*
X228Y308D01*
X228Y312D01*
X232Y312D01*
X232Y314D01*
X234Y314D01*
X234Y316D01*
X236Y316D01*
X236Y318D01*
X238Y318D01*
X238Y320D01*
X242Y320D01*
X242Y322D01*
X244Y322D01*
X244Y324D01*
X248Y324D01*
X248Y326D01*
X254Y326D01*
X254Y328D01*
X260Y328D01*
X260Y330D01*
X118Y330D01*
G37*
D02*
G36*
X1310Y278D02*
X1310Y276D01*
X1308Y276D01*
X1308Y274D01*
X1306Y274D01*
X1306Y272D01*
X1302Y272D01*
X1302Y270D01*
X1298Y270D01*
X1298Y268D01*
X1294Y268D01*
X1294Y266D01*
X1336Y266D01*
X1336Y270D01*
X1334Y270D01*
X1334Y274D01*
X1332Y274D01*
X1332Y278D01*
X1310Y278D01*
G37*
D02*
G36*
X1050Y266D02*
X1050Y264D01*
X1338Y264D01*
X1338Y266D01*
X1050Y266D01*
G37*
D02*
G36*
X1050Y266D02*
X1050Y264D01*
X1338Y264D01*
X1338Y266D01*
X1050Y266D01*
G37*
D02*
G36*
X1050Y264D02*
X1050Y244D01*
X1348Y244D01*
X1348Y248D01*
X1346Y248D01*
X1346Y252D01*
X1344Y252D01*
X1344Y256D01*
X1342Y256D01*
X1342Y260D01*
X1340Y260D01*
X1340Y264D01*
X1050Y264D01*
G37*
D02*
G36*
X818Y256D02*
X818Y254D01*
X814Y254D01*
X814Y252D01*
X810Y252D01*
X810Y250D01*
X806Y250D01*
X806Y248D01*
X802Y248D01*
X802Y246D01*
X794Y246D01*
X794Y244D01*
X860Y244D01*
X860Y246D01*
X854Y246D01*
X854Y248D01*
X848Y248D01*
X848Y250D01*
X844Y250D01*
X844Y252D01*
X842Y252D01*
X842Y254D01*
X838Y254D01*
X838Y256D01*
X818Y256D01*
G37*
D02*
G36*
X546Y244D02*
X546Y242D01*
X1350Y242D01*
X1350Y244D01*
X546Y244D01*
G37*
D02*
G36*
X546Y244D02*
X546Y242D01*
X1350Y242D01*
X1350Y244D01*
X546Y244D01*
G37*
D02*
G36*
X546Y244D02*
X546Y242D01*
X1350Y242D01*
X1350Y244D01*
X546Y244D01*
G37*
D02*
G36*
X546Y242D02*
X546Y228D01*
X548Y228D01*
X548Y206D01*
X546Y206D01*
X546Y196D01*
X544Y196D01*
X544Y190D01*
X542Y190D01*
X542Y186D01*
X1296Y186D01*
X1296Y184D01*
X1302Y184D01*
X1302Y182D01*
X1306Y182D01*
X1306Y180D01*
X1310Y180D01*
X1310Y178D01*
X1314Y178D01*
X1314Y176D01*
X1316Y176D01*
X1316Y174D01*
X1338Y174D01*
X1338Y176D01*
X1342Y176D01*
X1342Y178D01*
X1344Y178D01*
X1344Y180D01*
X1348Y180D01*
X1348Y182D01*
X1354Y182D01*
X1354Y184D01*
X1360Y184D01*
X1360Y186D01*
X1368Y186D01*
X1368Y208D01*
X1366Y208D01*
X1366Y212D01*
X1364Y212D01*
X1364Y216D01*
X1362Y216D01*
X1362Y220D01*
X1360Y220D01*
X1360Y224D01*
X1358Y224D01*
X1358Y228D01*
X1356Y228D01*
X1356Y232D01*
X1354Y232D01*
X1354Y236D01*
X1352Y236D01*
X1352Y240D01*
X1350Y240D01*
X1350Y242D01*
X546Y242D01*
G37*
D02*
G36*
X44Y202D02*
X44Y192D01*
X82Y192D01*
X82Y194D01*
X76Y194D01*
X76Y196D01*
X72Y196D01*
X72Y198D01*
X68Y198D01*
X68Y200D01*
X64Y200D01*
X64Y202D01*
X44Y202D01*
G37*
D02*
G36*
X44Y192D02*
X44Y190D01*
X412Y190D01*
X412Y192D01*
X44Y192D01*
G37*
D02*
G36*
X44Y192D02*
X44Y190D01*
X412Y190D01*
X412Y192D01*
X44Y192D01*
G37*
D02*
G36*
X44Y192D02*
X44Y190D01*
X412Y190D01*
X412Y192D01*
X44Y192D01*
G37*
D02*
G36*
X44Y190D02*
X44Y148D01*
X460Y148D01*
X460Y150D01*
X454Y150D01*
X454Y152D01*
X448Y152D01*
X448Y154D01*
X444Y154D01*
X444Y156D01*
X442Y156D01*
X442Y158D01*
X438Y158D01*
X438Y160D01*
X436Y160D01*
X436Y162D01*
X434Y162D01*
X434Y164D01*
X432Y164D01*
X432Y166D01*
X428Y166D01*
X428Y168D01*
X426Y168D01*
X426Y172D01*
X424Y172D01*
X424Y174D01*
X422Y174D01*
X422Y176D01*
X420Y176D01*
X420Y178D01*
X418Y178D01*
X418Y182D01*
X416Y182D01*
X416Y186D01*
X414Y186D01*
X414Y190D01*
X44Y190D01*
G37*
D02*
G36*
X540Y186D02*
X540Y182D01*
X538Y182D01*
X538Y180D01*
X536Y180D01*
X536Y176D01*
X534Y176D01*
X534Y174D01*
X532Y174D01*
X532Y172D01*
X530Y172D01*
X530Y170D01*
X528Y170D01*
X528Y168D01*
X526Y168D01*
X526Y166D01*
X524Y166D01*
X524Y164D01*
X522Y164D01*
X522Y162D01*
X520Y162D01*
X520Y160D01*
X518Y160D01*
X518Y158D01*
X514Y158D01*
X514Y156D01*
X510Y156D01*
X510Y154D01*
X508Y154D01*
X508Y152D01*
X502Y152D01*
X502Y150D01*
X496Y150D01*
X496Y148D01*
X1216Y148D01*
X1216Y152D01*
X1218Y152D01*
X1218Y156D01*
X1220Y156D01*
X1220Y158D01*
X1222Y158D01*
X1222Y160D01*
X1224Y160D01*
X1224Y162D01*
X1226Y162D01*
X1226Y164D01*
X1228Y164D01*
X1228Y166D01*
X1230Y166D01*
X1230Y168D01*
X1232Y168D01*
X1232Y170D01*
X1234Y170D01*
X1234Y172D01*
X1236Y172D01*
X1236Y174D01*
X1238Y174D01*
X1238Y176D01*
X1242Y176D01*
X1242Y178D01*
X1244Y178D01*
X1244Y180D01*
X1248Y180D01*
X1248Y182D01*
X1254Y182D01*
X1254Y184D01*
X1260Y184D01*
X1260Y186D01*
X540Y186D01*
G37*
D02*
G36*
X44Y148D02*
X44Y146D01*
X1214Y146D01*
X1214Y148D01*
X44Y148D01*
G37*
D02*
G36*
X44Y148D02*
X44Y146D01*
X1214Y146D01*
X1214Y148D01*
X44Y148D01*
G37*
D02*
G36*
X44Y146D02*
X44Y40D01*
X1238Y40D01*
X1238Y60D01*
X1236Y60D01*
X1236Y62D01*
X1234Y62D01*
X1234Y64D01*
X1232Y64D01*
X1232Y66D01*
X1228Y66D01*
X1228Y68D01*
X1226Y68D01*
X1226Y72D01*
X1224Y72D01*
X1224Y74D01*
X1222Y74D01*
X1222Y76D01*
X1220Y76D01*
X1220Y78D01*
X1218Y78D01*
X1218Y82D01*
X1216Y82D01*
X1216Y86D01*
X1214Y86D01*
X1214Y90D01*
X1212Y90D01*
X1212Y94D01*
X1210Y94D01*
X1210Y102D01*
X1208Y102D01*
X1208Y132D01*
X1210Y132D01*
X1210Y140D01*
X1212Y140D01*
X1212Y144D01*
X1214Y144D01*
X1214Y146D01*
X44Y146D01*
G37*
D02*
G36*
X1557Y190D02*
X1594Y190D01*
X1594Y132D01*
X1557Y132D01*
X1557Y190D01*
G37*
D02*
G36*
X1557Y106D02*
X1594Y106D01*
X1594Y48D01*
X1557Y48D01*
X1557Y106D01*
G37*
D02*
G36*
X1657Y190D02*
X1694Y190D01*
X1694Y132D01*
X1657Y132D01*
X1657Y190D01*
G37*
D02*
G36*
X1657Y106D02*
X1694Y106D01*
X1694Y48D01*
X1657Y48D01*
X1657Y106D01*
G37*
D02*
G36*
X1157Y1790D02*
X1194Y1790D01*
X1194Y1732D01*
X1157Y1732D01*
X1157Y1790D01*
G37*
D02*
G36*
X1557Y490D02*
X1594Y490D01*
X1594Y432D01*
X1557Y432D01*
X1557Y490D01*
G37*
D02*
G36*
X1557Y406D02*
X1594Y406D01*
X1594Y348D01*
X1557Y348D01*
X1557Y406D01*
G37*
D02*
G36*
X1588Y437D02*
X1648Y437D01*
X1648Y400D01*
X1588Y400D01*
X1588Y437D01*
G37*
D02*
G36*
X2288Y1737D02*
X2348Y1737D01*
X2348Y1700D01*
X2288Y1700D01*
X2288Y1737D01*
G37*
D02*
G36*
X2756Y992D02*
X2795Y992D01*
X2795Y934D01*
X2756Y934D01*
X2756Y992D01*
G37*
D02*
G36*
X2756Y904D02*
X2795Y904D01*
X2795Y846D01*
X2756Y846D01*
X2756Y904D01*
G37*
D02*
G36*
X2702Y938D02*
X2760Y938D01*
X2760Y899D01*
X2702Y899D01*
X2702Y938D01*
G37*
D02*
G36*
X2790Y938D02*
X2848Y938D01*
X2848Y899D01*
X2790Y899D01*
X2790Y938D01*
G37*
D02*
G36*
X757Y1706D02*
X794Y1706D01*
X794Y1648D01*
X757Y1648D01*
X757Y1706D01*
G37*
D02*
G36*
X704Y1737D02*
X762Y1737D01*
X762Y1700D01*
X704Y1700D01*
X704Y1737D01*
G37*
D02*
G36*
X81Y1634D02*
X118Y1634D01*
X118Y1576D01*
X81Y1576D01*
X81Y1634D01*
G37*
D02*
G36*
X81Y1550D02*
X118Y1550D01*
X118Y1492D01*
X81Y1492D01*
X81Y1550D01*
G37*
D02*
G36*
X112Y1581D02*
X170Y1581D01*
X170Y1544D01*
X112Y1544D01*
X112Y1581D01*
G37*
D02*
G36*
X81Y250D02*
X118Y250D01*
X118Y192D01*
X81Y192D01*
X81Y250D01*
G37*
D02*
G36*
X112Y281D02*
X170Y281D01*
X170Y244D01*
X112Y244D01*
X112Y281D01*
G37*
D02*
G36*
X81Y934D02*
X118Y934D01*
X118Y876D01*
X81Y876D01*
X81Y934D01*
G37*
D02*
G36*
X81Y850D02*
X118Y850D01*
X118Y792D01*
X81Y792D01*
X81Y850D01*
G37*
D02*
G36*
X112Y881D02*
X170Y881D01*
X170Y844D01*
X112Y844D01*
X112Y881D01*
G37*
D02*
G36*
X3456Y266D02*
X3495Y266D01*
X3495Y208D01*
X3456Y208D01*
X3456Y266D01*
G37*
D02*
G36*
X3402Y300D02*
X3460Y300D01*
X3460Y261D01*
X3402Y261D01*
X3402Y300D01*
G37*
D02*
G36*
X3490Y300D02*
X3550Y300D01*
X3550Y261D01*
X3490Y261D01*
X3490Y300D01*
G37*
D02*
G36*
X855Y304D02*
X896Y304D01*
X896Y244D01*
X855Y244D01*
X855Y304D01*
G37*
D02*
G36*
X457Y390D02*
X494Y390D01*
X494Y332D01*
X457Y332D01*
X457Y390D01*
G37*
D02*
G36*
X488Y337D02*
X548Y337D01*
X548Y300D01*
X488Y300D01*
X488Y337D01*
G37*
D02*
G36*
X2960Y2084D02*
X2991Y2084D01*
X2991Y2030D01*
X2960Y2030D01*
X2960Y2084D01*
G37*
D02*
G36*
X2960Y2008D02*
X2991Y2008D01*
X2991Y1954D01*
X2960Y1954D01*
X2960Y2008D01*
G37*
D02*
G36*
X2986Y2034D02*
X3042Y2034D01*
X3042Y2003D01*
X2986Y2003D01*
X2986Y2034D01*
G37*
D02*
G36*
X81Y1806D02*
X118Y1806D01*
X118Y1748D01*
X81Y1748D01*
X81Y1806D01*
G37*
D02*
G36*
X112Y1837D02*
X170Y1837D01*
X170Y1800D01*
X112Y1800D01*
X112Y1837D01*
G37*
D02*
G36*
X81Y590D02*
X118Y590D01*
X118Y532D01*
X81Y532D01*
X81Y590D01*
G37*
D02*
G36*
X112Y537D02*
X170Y537D01*
X170Y500D01*
X112Y500D01*
X112Y537D01*
G37*
D02*
G36*
X81Y1190D02*
X118Y1190D01*
X118Y1132D01*
X81Y1132D01*
X81Y1190D01*
G37*
D02*
G36*
X81Y1106D02*
X118Y1106D01*
X118Y1048D01*
X81Y1048D01*
X81Y1106D01*
G37*
D02*
G36*
X112Y1137D02*
X170Y1137D01*
X170Y1100D01*
X112Y1100D01*
X112Y1137D01*
G37*
D02*
G36*
X2918Y292D02*
X2957Y292D01*
X2957Y234D01*
X2918Y234D01*
X2918Y292D01*
G37*
D02*
G36*
X2918Y204D02*
X2957Y204D01*
X2957Y144D01*
X2918Y144D01*
X2918Y204D01*
G37*
D02*
G36*
X2864Y238D02*
X2922Y238D01*
X2922Y199D01*
X2864Y199D01*
X2864Y238D01*
G37*
D02*
G36*
X712Y707D02*
X874Y707D01*
X874Y530D01*
X712Y530D01*
X712Y707D01*
G37*
D02*
G54D24*
X0Y1837D02*
X85Y1837D01*
X0Y1836D02*
X85Y1836D01*
X0Y1835D02*
X85Y1835D01*
X0Y1834D02*
X85Y1834D01*
X0Y1833D02*
X85Y1833D01*
X0Y1832D02*
X85Y1832D01*
X0Y1831D02*
X85Y1831D01*
X0Y1830D02*
X85Y1830D01*
X0Y1829D02*
X85Y1829D01*
X0Y1828D02*
X85Y1828D01*
X0Y1827D02*
X85Y1827D01*
X0Y1826D02*
X85Y1826D01*
X0Y1825D02*
X85Y1825D01*
X0Y1824D02*
X85Y1824D01*
X0Y1823D02*
X85Y1823D01*
X0Y1822D02*
X85Y1822D01*
X0Y1821D02*
X85Y1821D01*
X0Y1820D02*
X85Y1820D01*
X0Y1819D02*
X85Y1819D01*
X0Y1818D02*
X85Y1818D01*
X0Y1817D02*
X85Y1817D01*
X0Y1816D02*
X85Y1816D01*
X0Y1815D02*
X85Y1815D01*
X0Y1814D02*
X85Y1814D01*
X0Y1813D02*
X85Y1813D01*
X0Y1812D02*
X85Y1812D01*
X0Y1811D02*
X85Y1811D01*
X0Y1810D02*
X85Y1810D01*
X0Y1809D02*
X85Y1809D01*
X0Y1808D02*
X85Y1808D01*
X0Y1807D02*
X85Y1807D01*
X0Y1806D02*
X85Y1806D01*
X0Y1805D02*
X85Y1805D01*
X0Y1804D02*
X85Y1804D01*
X0Y1803D02*
X85Y1803D01*
X0Y1802D02*
X85Y1802D01*
X0Y1801D02*
X85Y1801D01*
X0Y1581D02*
X85Y1581D01*
X0Y1580D02*
X85Y1580D01*
X0Y1579D02*
X85Y1579D01*
X0Y1578D02*
X85Y1578D01*
X0Y1577D02*
X85Y1577D01*
X0Y1576D02*
X85Y1576D01*
X0Y1575D02*
X85Y1575D01*
X0Y1574D02*
X85Y1574D01*
X0Y1573D02*
X85Y1573D01*
X0Y1572D02*
X85Y1572D01*
X0Y1571D02*
X85Y1571D01*
X0Y1570D02*
X85Y1570D01*
X0Y1569D02*
X85Y1569D01*
X0Y1568D02*
X85Y1568D01*
X0Y1567D02*
X85Y1567D01*
X0Y1566D02*
X85Y1566D01*
X0Y1565D02*
X85Y1565D01*
X0Y1564D02*
X85Y1564D01*
X0Y1563D02*
X85Y1563D01*
X0Y1562D02*
X85Y1562D01*
X0Y1561D02*
X85Y1561D01*
X0Y1560D02*
X85Y1560D01*
X0Y1559D02*
X85Y1559D01*
X0Y1558D02*
X85Y1558D01*
X0Y1557D02*
X85Y1557D01*
X0Y1556D02*
X85Y1556D01*
X0Y1555D02*
X85Y1555D01*
X0Y1554D02*
X85Y1554D01*
X0Y1553D02*
X85Y1553D01*
X0Y1552D02*
X85Y1552D01*
X0Y1551D02*
X85Y1551D01*
X0Y1550D02*
X85Y1550D01*
X0Y1549D02*
X85Y1549D01*
X0Y1548D02*
X85Y1548D01*
X0Y1547D02*
X85Y1547D01*
X0Y1546D02*
X85Y1546D01*
X0Y1545D02*
X85Y1545D01*
X0Y1137D02*
X85Y1137D01*
X0Y1136D02*
X85Y1136D01*
X0Y1135D02*
X85Y1135D01*
X0Y1134D02*
X85Y1134D01*
X0Y1133D02*
X85Y1133D01*
X0Y1132D02*
X85Y1132D01*
X0Y1131D02*
X85Y1131D01*
X0Y1130D02*
X85Y1130D01*
X0Y1129D02*
X85Y1129D01*
X0Y1128D02*
X85Y1128D01*
X0Y1127D02*
X85Y1127D01*
X0Y1126D02*
X85Y1126D01*
X0Y1125D02*
X85Y1125D01*
X0Y1124D02*
X85Y1124D01*
X0Y1123D02*
X85Y1123D01*
X0Y1122D02*
X85Y1122D01*
X0Y1121D02*
X85Y1121D01*
X0Y1120D02*
X85Y1120D01*
X0Y1119D02*
X85Y1119D01*
X0Y1118D02*
X85Y1118D01*
X0Y1117D02*
X85Y1117D01*
X0Y1116D02*
X85Y1116D01*
X0Y1115D02*
X85Y1115D01*
X0Y1114D02*
X85Y1114D01*
X0Y1113D02*
X85Y1113D01*
X0Y1112D02*
X85Y1112D01*
X0Y1111D02*
X85Y1111D01*
X0Y1110D02*
X85Y1110D01*
X0Y1109D02*
X85Y1109D01*
X0Y1108D02*
X85Y1108D01*
X0Y1107D02*
X85Y1107D01*
X0Y1106D02*
X85Y1106D01*
X0Y1105D02*
X85Y1105D01*
X0Y1104D02*
X85Y1104D01*
X0Y1103D02*
X85Y1103D01*
X0Y1102D02*
X85Y1102D01*
X0Y1101D02*
X85Y1101D01*
X0Y881D02*
X85Y881D01*
X0Y880D02*
X85Y880D01*
X0Y879D02*
X85Y879D01*
X0Y878D02*
X85Y878D01*
X0Y877D02*
X85Y877D01*
X0Y876D02*
X85Y876D01*
X0Y875D02*
X85Y875D01*
X0Y874D02*
X85Y874D01*
X0Y873D02*
X85Y873D01*
X0Y872D02*
X85Y872D01*
X0Y871D02*
X85Y871D01*
X0Y870D02*
X85Y870D01*
X0Y869D02*
X85Y869D01*
X0Y868D02*
X85Y868D01*
X0Y867D02*
X85Y867D01*
X0Y866D02*
X85Y866D01*
X0Y865D02*
X85Y865D01*
X0Y864D02*
X85Y864D01*
X0Y863D02*
X85Y863D01*
X0Y862D02*
X85Y862D01*
X0Y861D02*
X85Y861D01*
X0Y860D02*
X85Y860D01*
X0Y859D02*
X85Y859D01*
X0Y858D02*
X85Y858D01*
X0Y857D02*
X85Y857D01*
X0Y856D02*
X85Y856D01*
X0Y855D02*
X85Y855D01*
X0Y854D02*
X85Y854D01*
X0Y853D02*
X85Y853D01*
X0Y852D02*
X85Y852D01*
X0Y851D02*
X85Y851D01*
X0Y850D02*
X85Y850D01*
X0Y849D02*
X85Y849D01*
X0Y848D02*
X85Y848D01*
X0Y847D02*
X85Y847D01*
X0Y846D02*
X85Y846D01*
X0Y845D02*
X85Y845D01*
X0Y537D02*
X85Y537D01*
X0Y536D02*
X85Y536D01*
X0Y535D02*
X85Y535D01*
X0Y534D02*
X85Y534D01*
X0Y533D02*
X85Y533D01*
X0Y532D02*
X85Y532D01*
X0Y531D02*
X85Y531D01*
X0Y530D02*
X85Y530D01*
X0Y529D02*
X85Y529D01*
X0Y528D02*
X85Y528D01*
X0Y527D02*
X85Y527D01*
X0Y526D02*
X85Y526D01*
X0Y525D02*
X85Y525D01*
X0Y524D02*
X85Y524D01*
X0Y523D02*
X85Y523D01*
X0Y522D02*
X85Y522D01*
X0Y521D02*
X85Y521D01*
X0Y520D02*
X85Y520D01*
X0Y519D02*
X85Y519D01*
X0Y518D02*
X85Y518D01*
X0Y517D02*
X85Y517D01*
X0Y516D02*
X85Y516D01*
X0Y515D02*
X85Y515D01*
X0Y514D02*
X85Y514D01*
X0Y513D02*
X85Y513D01*
X0Y512D02*
X85Y512D01*
X0Y511D02*
X85Y511D01*
X0Y510D02*
X85Y510D01*
X0Y509D02*
X85Y509D01*
X0Y508D02*
X85Y508D01*
X0Y507D02*
X85Y507D01*
X0Y506D02*
X85Y506D01*
X0Y505D02*
X85Y505D01*
X0Y504D02*
X85Y504D01*
X0Y503D02*
X85Y503D01*
X0Y502D02*
X85Y502D01*
X0Y501D02*
X85Y501D01*
X0Y281D02*
X85Y281D01*
X0Y280D02*
X85Y280D01*
X0Y279D02*
X85Y279D01*
X0Y278D02*
X85Y278D01*
X0Y277D02*
X85Y277D01*
X0Y276D02*
X85Y276D01*
X0Y275D02*
X85Y275D01*
X0Y274D02*
X85Y274D01*
X0Y273D02*
X85Y273D01*
X0Y272D02*
X85Y272D01*
X0Y271D02*
X85Y271D01*
X0Y270D02*
X85Y270D01*
X0Y269D02*
X85Y269D01*
X0Y268D02*
X85Y268D01*
X0Y267D02*
X85Y267D01*
X0Y266D02*
X85Y266D01*
X0Y265D02*
X85Y265D01*
X0Y264D02*
X85Y264D01*
X0Y263D02*
X85Y263D01*
X0Y262D02*
X85Y262D01*
X0Y261D02*
X85Y261D01*
X0Y260D02*
X85Y260D01*
X0Y259D02*
X85Y259D01*
X0Y258D02*
X85Y258D01*
X0Y257D02*
X85Y257D01*
X0Y256D02*
X85Y256D01*
X0Y255D02*
X85Y255D01*
X0Y254D02*
X85Y254D01*
X0Y253D02*
X85Y253D01*
X0Y252D02*
X85Y252D01*
X0Y251D02*
X85Y251D01*
X0Y250D02*
X85Y250D01*
X0Y249D02*
X85Y249D01*
X0Y248D02*
X85Y248D01*
X0Y247D02*
X85Y247D01*
X0Y246D02*
X85Y246D01*
X0Y245D02*
X85Y245D01*
D02*
G04 End of Copper0*
M02*