G04 MADE WITH FRITZING*
G04 WWW.FRITZING.ORG*
G04 DOUBLE SIDED*
G04 HOLES PLATED*
G04 CONTOUR ON CENTER OF CONTOUR VECTOR*
%ASAXBY*%
%FSLAX23Y23*%
%MOIN*%
%OFA0B0*%
%SFA1.0B1.0*%
%ADD10C,0.085000*%
%ADD11C,0.090000*%
%ADD12C,0.088000*%
%ADD13C,0.049370*%
%ADD14C,0.092000*%
%ADD15C,0.072992*%
%ADD16R,0.085000X0.085000*%
%ADD17R,0.090000X0.090000*%
%ADD18R,0.088000X0.088000*%
%ADD19R,0.092000X0.092000*%
%ADD20R,0.321111X0.365556*%
%ADD21R,0.072992X0.072992*%
%LNMASK0*%
G90*
G70*
G54D10*
X778Y1717D03*
X878Y1717D03*
X978Y1717D03*
X1078Y1717D03*
X1178Y1717D03*
X1278Y1717D03*
X1378Y1717D03*
X1478Y1717D03*
X1578Y1717D03*
X1678Y1717D03*
X1778Y1717D03*
X1878Y1717D03*
X1978Y1717D03*
X2078Y1717D03*
X2178Y1717D03*
X2278Y1717D03*
X908Y2017D03*
X1008Y2017D03*
X1108Y2017D03*
X1208Y2017D03*
X1308Y2017D03*
X1408Y2017D03*
X1508Y2017D03*
X1608Y2017D03*
X1778Y2017D03*
X1878Y2017D03*
X1978Y2017D03*
X2078Y2017D03*
X2178Y2017D03*
X2278Y2017D03*
X2378Y2017D03*
X2478Y2017D03*
X1278Y117D03*
X1378Y117D03*
X1478Y117D03*
X1578Y117D03*
X1678Y117D03*
X1778Y117D03*
X1978Y117D03*
X2078Y117D03*
X2178Y117D03*
X2278Y117D03*
X2378Y117D03*
X2478Y117D03*
X101Y1561D03*
X101Y1817D03*
X278Y1561D03*
X278Y1817D03*
X101Y261D03*
X101Y517D03*
X278Y261D03*
X278Y517D03*
X101Y861D03*
X101Y1117D03*
X278Y861D03*
X278Y1117D03*
G54D11*
X3478Y1931D03*
X3478Y1793D03*
X3478Y1655D03*
X3478Y1517D03*
X3478Y1379D03*
X3478Y1242D03*
X3478Y417D03*
X3478Y279D03*
X3078Y217D03*
X2940Y217D03*
G54D12*
X3178Y917D03*
X2978Y917D03*
X2778Y917D03*
G54D13*
X1679Y1916D03*
X1679Y1816D03*
X2479Y1816D03*
X2379Y1916D03*
X577Y1617D03*
X577Y1016D03*
X577Y1217D03*
X1377Y1917D03*
G54D14*
X978Y317D03*
X878Y317D03*
X778Y317D03*
G54D10*
X478Y317D03*
X478Y217D03*
X1578Y417D03*
X1478Y417D03*
G54D13*
X2779Y517D03*
X3078Y516D03*
X1877Y517D03*
X1778Y717D03*
X1478Y716D03*
X1278Y718D03*
X1278Y318D03*
G54D15*
X2879Y2017D03*
X2978Y2017D03*
G54D10*
X2878Y1917D03*
X2478Y1917D03*
G54D16*
X777Y1718D03*
G54D17*
X3478Y1931D03*
X3478Y417D03*
X3078Y217D03*
G54D18*
X3178Y917D03*
G54D19*
X978Y317D03*
G54D16*
X478Y317D03*
X1578Y417D03*
G54D20*
X878Y617D03*
X878Y617D03*
G54D21*
X2879Y2017D03*
G54D16*
X2878Y1917D03*
G04 End of Mask0*
M02*