<?xml version='1.0' encoding='UTF-8' standalone='no'?>
<!-- Created with Fritzing (http://www.fritzing.org/) -->
<svg xmlns="http://www.w3.org/2000/svg" width="3.70851in" x="0in" version="1.2" y="0in"  height="2.12839in" viewBox="0 0 267.013 153.244" baseProfile="tiny" xmlns:svg="http://www.w3.org/2000/svg">
 <g transform="matrix(-1, 0, 0, 1, 267.013, 0)">
  <g partID="12040">
   <g id="board">
    <rect width="266.437" x="0.576" y="0.576" fill="none" height="152.668" stroke="black" fill-opacity="0.5" id="boardoutline" stroke-width="0.5"/>
   </g>
  </g>
  <g partID="64250">
   <g transform="translate(22.8461,19.9793)">
    <g transform="matrix(0,1,-1,0,0,0)">
     <g  id="copper0">
      <g fill="none" cx="20.8462"  cy="15.6024" stroke="black" id="0" r="1.98" stroke-width="1.44"/>
      <g fill="none" cx="2.42064"  cy="15.6024" stroke="black" id="1" r="1.98" stroke-width="1.44"/>
      <g fill="none" cx="20.8462"  cy="2.84616" stroke="black" id="2" r="1.98" stroke-width="1.44"/>
      <g fill="none" cx="2.42064"  cy="2.84616" stroke="black" id="3" r="1.98" stroke-width="1.44"/>
     </g>
    </g>
   </g>
  </g>
  <g partID="64280">
   <g transform="translate(22.8461,113.579)">
    <g transform="matrix(0,1,-1,0,0,0)">
     <g  id="copper0">
      <g fill="none" cx="20.8462"  cy="15.6024" stroke="black" id="4" r="1.98" stroke-width="1.44"/>
      <g fill="none" cx="2.42064"  cy="15.6024" stroke="black" id="5" r="1.98" stroke-width="1.44"/>
      <g fill="none" cx="20.8462"  cy="2.84616" stroke="black" id="6" r="1.98" stroke-width="1.44"/>
      <g fill="none" cx="2.42064"  cy="2.84616" stroke="black" id="7" r="1.98" stroke-width="1.44"/>
     </g>
    </g>
   </g>
  </g>
  <g partID="64310">
   <g transform="translate(22.8461,70.3793)">
    <g transform="matrix(0,1,-1,0,0,0)">
     <g  id="copper0">
      <g fill="none" cx="20.8462"  cy="15.6024" stroke="black" id="8" r="1.98" stroke-width="1.44"/>
      <g fill="none" cx="2.42064"  cy="15.6024" stroke="black" id="9" r="1.98" stroke-width="1.44"/>
      <g fill="none" cx="20.8462"  cy="2.84616" stroke="black" id="10" r="1.98" stroke-width="1.44"/>
      <g fill="none" cx="2.42064"  cy="2.84616" stroke="black" id="11" r="1.98" stroke-width="1.44"/>
     </g>
    </g>
   </g>
  </g>
  <g partID="171960">
   <g transform="translate(242.624,7.476)">
    <g id="copper0">
     <g width="4.32" x="5.616" y="4.60063" fill="none" height="4.32" stroke="black" id="12" stroke-width="1.44"/>
     <g fill="none" cx="7.776" cy="6.76063" stroke="black" id="13" r="2.16" stroke-width="1.44"/>
     <g fill="none" cx="7.776" cy="16.6819" stroke="black" id="14" r="2.16" stroke-width="1.44"/>
     <g fill="none" cx="7.776" cy="26.6031" stroke="black" id="15" r="2.16" stroke-width="1.44"/>
     <g fill="none" cx="7.776" cy="36.5244" stroke="black" id="16" r="2.16" stroke-width="1.44"/>
     <g fill="none" cx="7.776" cy="46.4457" stroke="black" id="17" r="2.16" stroke-width="1.44"/>
     <g fill="none" cx="7.776" cy="56.3669" stroke="black" id="18" r="2.16" stroke-width="1.44"/>
    </g>
   </g>
  </g>
  <g partID="172190">
   <g transform="translate(242.624,116.439)">
    <g id="copper0">
     <g width="4.32" x="5.616" y="4.60063" fill="none" height="4.32" stroke="black" id="19" stroke-width="1.44"/>
     <g fill="none" cx="7.776" cy="6.76063" stroke="black" id="20" r="2.16" stroke-width="1.44"/>
     <g fill="none" cx="7.776" cy="16.6819" stroke="black" id="21" r="2.16" stroke-width="1.44"/>
    </g>
   </g>
  </g>
  <g partID="283620">
   <g transform="translate(228.361,129.824)">
    <g transform="matrix(0,1,-1,0,0,0)">
     <g id="copper0">
      <g width="4.32" x="5.616" y="4.60063" fill="none" height="4.32" stroke="black" id="22" stroke-width="1.44"/>
      <g fill="none" cx="7.776" cy="6.76063" stroke="black" id="23" r="2.16" stroke-width="1.44"/>
      <g fill="none" cx="7.776" cy="16.6819" stroke="black" id="24" r="2.16" stroke-width="1.44"/>
     </g>
    </g>
   </g>
  </g>
  <g partID="299000">
   <g transform="translate(233.84,82.16)">
    <g transform="matrix(-2.77556e-17,1,-1,-2.77556e-17,0,0)">
     <g  id="copper0">
      <g width="4.176" x="2.952" y="2.952" fill="none"  height="4.176" stroke="black" id="25" stroke-width="1.44"/>
      <g fill="none" cx="5.04"  cy="5.04" stroke="black" id="26" r="2.088" stroke-width="1.44"/>
      <g fill="none" cx="5.04"  cy="19.44" stroke="black" id="27" r="2.088" stroke-width="1.44"/>
      <g fill="none" cx="5.04"  cy="33.84" stroke="black" id="28" r="2.088" stroke-width="1.44"/>
     </g>
    </g>
   </g>
  </g>
  <g partID="311300">
   <g transform="translate(79.04,144.8)">
    <g transform="matrix(-1,0,0,-1,0,0)">
     <g  id="copper0">
      <g width="4.464" x="6.408" y="12.168" fill="none"  height="4.464" stroke="black" id="29" stroke-width="1.44"/>
      <g fill="none" cx="8.64"  cy="14.4" stroke="black" id="30" r="2.232" stroke-width="1.44"/>
      <g fill="none" cx="15.84"  cy="14.4" stroke="black" id="31" r="2.232" stroke-width="1.44"/>
      <g fill="none" cx="23.04"  cy="14.4" stroke="black" id="32" r="2.232" stroke-width="1.44"/>
     </g>
    </g>
   </g>
  </g>
  <g partID="311320">
   <g transform="translate(41.96,126.44)">
    <g transform="matrix(0,1,-1,0,0,0)">
     <g  id="copper0">
      <g width="3.96" x="1.98" y="5.58" fill="none"  height="3.96" stroke="black" id="33" stroke-width="1.44"/>
      <g fill="none" cx="3.96"  cy="7.56" stroke="black" r="1.98" id="34" stroke-width="1.44"/>
      <g fill="none" cx="11.16"  cy="7.56" stroke="black" r="1.98" id="35" stroke-width="1.44"/>
     </g>
    </g>
   </g>
  </g>
  <g partID="311350">
   <g transform="translate(117.56,130.76)">
    <g transform="matrix(-1,0,0,-1,0,0)">
     <g  id="copper0">
      <g width="3.96" x="1.98" y="5.58" fill="none"  height="3.96" stroke="black" id="36" stroke-width="1.44"/>
      <g fill="none" cx="3.96"  cy="7.56" stroke="black" r="1.98" id="37" stroke-width="1.44"/>
      <g fill="none" cx="11.16"  cy="7.56" stroke="black" r="1.98" id="38" stroke-width="1.44"/>
     </g>
    </g>
   </g>
  </g>
  <g partID="326970">
   <g transform="translate(197.097,113.003)">
    <g  id="copper0">
     <g fill="none" cx="3.01733"  cy="3.01733" stroke="black" r="0.992124" id="39" stroke-width="0.850392"/>
    </g>
   </g>
  </g>
  <g partID="327050">
   <g transform="translate(132.15,113.003)">
    <g  id="copper0">
     <g fill="none" cx="3.01733"  cy="3.01733" stroke="black" r="0.992124" id="40" stroke-width="0.850392"/>
    </g>
   </g>
  </g>
  <g partID="328130">
   <g transform="translate(50.4,94.4)">
    <g  id="copper0">
     <rect width="22.4" x="1.6" y="1.6" fill="black"  height="25.6" stroke="none" fill-opacity="1" id="41" stroke-width="0"/>
     <rect width="22.4" x="1.6" y="1.6" fill="none"  height="25.6" stroke="none" id="42" stroke-width="0"/>
    </g>
   </g>
  </g>
  <g partID="330270">
   <g transform="translate(88.9648,98.5208)">
    <g  id="copper0">
     <g fill="none" cx="3.01733"  cy="3.01733" stroke="black" r="0.992124" id="43" stroke-width="0.850392"/>
    </g>
   </g>
  </g>
  <g partID="330290">
   <g transform="translate(88.9648,127.356)">
    <g  id="copper0">
     <g fill="none" cx="3.01733"  cy="3.01733" stroke="black" r="0.992124" id="44" stroke-width="0.850392"/>
    </g>
   </g>
  </g>
  <g partID="371180">
   <g transform="translate(217.946,-0.7872)">
    <g transform="matrix(0,1,-1,0,0,0)">
     <g  id="copper0">
      <g  id="copper1">
       <g fill="none" cx="8.7872"  cy="10.6336" stroke="black" id="45" r="1.7008" stroke-width="1.13384"/>
       <g width="3.4016" x="7.0864" y="8.9328" fill="none"  height="3.4016" stroke="black" id="46" stroke-width="1.13384"/>
       <g fill="none" cx="8.7872"  cy="3.5464" stroke="black" id="47" r="1.7008" stroke-width="1.13384"/>
      </g>
     </g>
    </g>
   </g>
  </g>
  <g partID="372720">
   <g transform="translate(202.7,18.296)">
    <g transform="matrix(-1,0,0,-1,0,0)">
     <g  id="copper0">
      <g  id="copper1">
       <g width="3.96" x="0.72" y="1.116" fill="none"  height="3.96" stroke="black" id="48" stroke-width="1.44"/>
       <g fill="none" cx="2.7"  cy="3.096" stroke="black" r="1.98" id="49" stroke-width="1.44"/>
       <g fill="none" cx="31.5"  cy="3.096" stroke="black" r="1.98" id="50" stroke-width="1.44"/>
      </g>
     </g>
    </g>
   </g>
  </g>
  <g partID="399360">
   <g transform="translate(74.5827,19.3827)">
    <g  id="copper0">
     <g fill="none" cx="3.01733"  cy="3.01733" stroke="black" r="0.992124" id="51" stroke-width="0.850392"/>
    </g>
   </g>
  </g>
  <g partID="399670">
   <g transform="translate(38.5958,33.7827)">
    <g  id="copper0">
     <g fill="none" cx="3.01733"  cy="3.01733" stroke="black" r="0.992124" id="52" stroke-width="0.850392"/>
    </g>
   </g>
  </g>
  <g partID="399690">
   <g transform="translate(74.5827,33.7827)">
    <g  id="copper0">
     <g fill="none" cx="3.01733"  cy="3.01733" stroke="black" r="0.992124" id="53" stroke-width="0.850392"/>
    </g>
   </g>
  </g>
  <g partID="63840">
   <g transform="translate(62.876,5.516)">
    <g  id="copper0">
     <g fill="none" cx="2.484"  cy="2.484" stroke="black" id="54" r="1.98" stroke-width="1.44"/>
     <g fill="none" cx="9.684"  cy="2.484" stroke="black" id="55" r="1.98" stroke-width="1.44"/>
     <g fill="none" cx="16.884"  cy="2.484" stroke="black" id="56" r="1.98" stroke-width="1.44"/>
     <g fill="none" cx="24.084"  cy="2.484" stroke="black" id="57" r="1.98" stroke-width="1.44"/>
     <g fill="none" cx="31.284"  cy="2.484" stroke="black" id="58" r="1.98" stroke-width="1.44"/>
     <g fill="none" cx="38.484"  cy="2.484" stroke="black" id="59" r="1.98" stroke-width="1.44"/>
     <g fill="none" cx="45.684"  cy="2.484" stroke="black" id="60" r="1.98" stroke-width="1.44"/>
     <g fill="none" cx="52.884"  cy="2.484" stroke="black" id="61" r="1.98" stroke-width="1.44"/>
     <g fill="none" cx="65.124"  cy="2.484" stroke="black" id="62" r="1.98" stroke-width="1.44"/>
     <g fill="none" cx="72.324"  cy="2.484" stroke="black" id="63" r="1.98" stroke-width="1.44"/>
     <g fill="none" cx="79.524"  cy="2.484" stroke="black" id="64" r="1.98" stroke-width="1.44"/>
     <g fill="none" cx="86.724"  cy="2.484" stroke="black" id="65" r="1.98" stroke-width="1.44"/>
     <g fill="none" cx="93.924"  cy="2.484" stroke="black" id="66" r="1.98" stroke-width="1.44"/>
     <g fill="none" cx="101.124"  cy="2.484" stroke="black" id="67" r="1.98" stroke-width="1.44"/>
     <g fill="none" cx="108.324"  cy="2.484" stroke="black" id="68" r="1.98" stroke-width="1.44"/>
     <g fill="none" cx="115.524"  cy="2.484" stroke="black" id="69" r="1.98" stroke-width="1.44"/>
     <g fill="none" cx="29.124"  cy="139.284" stroke="black" id="70" r="1.98" stroke-width="1.44"/>
     <g fill="none" cx="36.324"  cy="139.284" stroke="black" id="71" r="1.98" stroke-width="1.44"/>
     <g fill="none" cx="43.524"  cy="139.284" stroke="black" id="72" r="1.98" stroke-width="1.44"/>
     <g fill="none" cx="50.724"  cy="139.284" stroke="black" id="73" r="1.98" stroke-width="1.44"/>
     <g fill="none" cx="57.924"  cy="139.284" stroke="black" id="74" r="1.98" stroke-width="1.44"/>
     <g fill="none" cx="65.124"  cy="139.284" stroke="black" id="75" r="1.98" stroke-width="1.44"/>
     <g fill="none" cx="79.524"  cy="139.284" stroke="black" id="76" r="1.98" stroke-width="1.44"/>
     <g fill="none" cx="86.724"  cy="139.284" stroke="black" id="77" r="1.98" stroke-width="1.44"/>
     <g fill="none" cx="93.924"  cy="139.284" stroke="black" id="78" r="1.98" stroke-width="1.44"/>
     <g fill="none" cx="101.124"  cy="139.284" stroke="black" id="79" r="1.98" stroke-width="1.44"/>
     <g fill="none" cx="108.324"  cy="139.284" stroke="black" id="80" r="1.98" stroke-width="1.44"/>
     <g fill="none" cx="115.524"  cy="139.284" stroke="black" id="81" r="1.98" stroke-width="1.44"/>
    </g>
   </g>
  </g>
  <g partID="64160">
   <g transform="translate(33.32,22.4)">
    <g  id="copper0">
     <g width="3.96" x="20.664" y="5.184" fill="none"  height="3.96" stroke="black" id="82" stroke-width="1.44"/>
     <g fill="none" cx="22.68"  cy="7.2" stroke="black" id="83" r="1.98" stroke-width="1.44"/>
     <g fill="none" cx="29.88"  cy="7.2" stroke="black" id="84" r="1.98" stroke-width="1.44"/>
     <g fill="none" cx="37.08"  cy="7.2" stroke="black" id="85" r="1.98" stroke-width="1.44"/>
     <g fill="none" cx="44.28"  cy="7.2" stroke="black" id="86" r="1.98" stroke-width="1.44"/>
     <g fill="none" cx="51.48"  cy="7.2" stroke="black" id="87" r="1.98" stroke-width="1.44"/>
     <g fill="none" cx="58.68"  cy="7.2" stroke="black" id="88" r="1.98" stroke-width="1.44"/>
     <g fill="none" cx="65.88"  cy="7.2" stroke="black" id="89" r="1.98" stroke-width="1.44"/>
     <g fill="none" cx="73.08"  cy="7.2" stroke="black" id="90" r="1.98" stroke-width="1.44"/>
     <g fill="none" cx="80.28"  cy="7.2" stroke="black" id="91" r="1.98" stroke-width="1.44"/>
     <g fill="none" cx="87.48"  cy="7.2" stroke="black" id="92" r="1.98" stroke-width="1.44"/>
     <g fill="none" cx="94.68"  cy="7.2" stroke="black" id="93" r="1.98" stroke-width="1.44"/>
     <g fill="none" cx="101.88"  cy="7.2" stroke="black" id="94" r="1.98" stroke-width="1.44"/>
     <g fill="none" cx="109.08"  cy="7.2" stroke="black" id="95" r="1.98" stroke-width="1.44"/>
     <g fill="none" cx="116.28"  cy="7.2" stroke="black" id="96" r="1.98" stroke-width="1.44"/>
     <g fill="none" cx="123.48"  cy="7.2" stroke="black" id="97" r="1.98" stroke-width="1.44"/>
     <g fill="none" cx="130.68"  cy="7.2" stroke="black" id="98" r="1.98" stroke-width="1.44"/>
    </g>
   </g>
  </g>
 </g>
</svg>
